<?xml version="1.0" encoding="UTF-8"?>
<svg version="1.1" xmlns="http://www.w3.org/2000/svg" width="100" height="100">
<path d="M0 0 C3.88163022 1.13374348 5.70296847 2.80250585 8.59375 5.609375 C9.55539063 6.50785156 10.51703125 7.40632813 11.5078125 8.33203125 C13.02606447 9.81669357 14.51928735 11.33049193 15.9296875 12.91796875 C19.35623908 16.54454746 22.65008997 17.6496238 27.59375 18.296875 C34.13525767 18.10797585 36.98587106 15.78572043 41.55493164 11.23486328 C42.9445146 9.74663559 44.31035477 8.23584272 45.65014648 6.70263672 C50.52255461 1.14039065 50.52255461 1.14039065 54.44140625 -0.2109375 C57.15625 -0.078125 57.15625 -0.078125 60.09375 1.984375 C62.15625 4.921875 62.15625 4.921875 62.0625 7.90087891 C60.95664126 11.58727331 59.95730807 12.23184194 56.71875 14.1953125 C49.53055909 19.30848169 42.56331597 24.61089187 40.56414795 33.57757568 C38.84400377 46.15011811 39.3942985 59.13819047 40.13804626 71.77482605 C40.18200027 72.67163589 40.22595428 73.56844574 40.27124023 74.49243164 C40.32046127 75.27816055 40.36968231 76.06388947 40.4203949 76.87342834 C40.08133539 79.50283868 39.22392841 80.32420789 37.15625 81.921875 C35.2109375 82.31005859 35.2109375 82.31005859 33.03125 82.3203125 C32.24234375 82.32417969 31.4534375 82.32804687 30.640625 82.33203125 C29.41085938 82.31462891 29.41085938 82.31462891 28.15625 82.296875 C26.92648438 82.31427734 26.92648438 82.31427734 25.671875 82.33203125 C24.88296875 82.32816406 24.0940625 82.32429688 23.28125 82.3203125 C22.56195313 82.31692871 21.84265625 82.31354492 21.1015625 82.31005859 C18.54387211 81.7996761 17.76587567 80.95531762 16.15625 78.921875 C15.81135559 76.78594971 15.81135559 76.78594971 15.85083008 74.28613281 C15.85685745 73.34795715 15.86288483 72.40978149 15.86909485 71.44317627 C15.88780136 70.4306781 15.90650787 69.41817993 15.92578125 68.375 C15.92788111 66.2291676 15.92848486 64.0833333 15.92773438 61.9375 C15.94221088 58.55539642 15.96870543 55.17469167 16.0222168 51.79296875 C16.06732879 48.52771963 16.06249721 45.26547402 16.05078125 42 C16.09402275 40.49339813 16.09402275 40.49339813 16.13813782 38.95635986 C16.09630675 34.87020239 16.0663853 32.05547037 13.44917297 28.79566956 C11.42810197 27.01578352 9.35980042 25.46679864 7.15625 23.921875 C5.87390266 22.83129898 4.60233075 21.72777114 3.34765625 20.60546875 C2.74630859 20.06857422 2.14496094 19.53167969 1.52539062 18.97851562 C0.92919922 18.44419922 0.33300781 17.90988281 -0.28125 17.359375 C-0.90451172 16.82119141 -1.52777344 16.28300781 -2.16992188 15.72851562 C-5.08556806 13.0920608 -6.65332528 11.5117621 -7.8828125 7.703125 C-7.84375 4.921875 -7.84375 4.921875 -5.78125 1.984375 C-2.84375 -0.078125 -2.84375 -0.078125 0 0 Z M-1.84375 4.921875 C-2.28887229 8.87508786 -2.28887229 8.87508786 -0.04296875 10.9296875 C0.78589844 11.62835938 1.61476563 12.32703125 2.46875 13.046875 C3.76444679 14.15270318 5.05597054 15.26420266 6.31542969 16.41113281 C8.23557292 18.0583067 8.23557292 18.0583067 10.92675781 19.61230469 C15.22739744 22.62846432 18.47259617 25.1834877 19.76467896 30.35894775 C20.69079766 37.52104927 20.45093447 44.71887685 20.28125 51.921875 C20.25818762 55.18664348 20.25017556 58.45122884 20.24264526 61.71606445 C20.2320826 63.73944619 20.20913617 65.76280857 20.17263794 67.78588867 C20.15707855 68.69443604 20.14151917 69.6029834 20.12548828 70.5390625 C20.10785431 71.33940918 20.09022034 72.13975586 20.072052 72.96435547 C20.02622524 75.00212914 20.02622524 75.00212914 21.15625 76.921875 C22.47625 76.921875 23.79625 76.921875 25.15625 76.921875 C26.43486615 74.36464271 26.26961609 72.55450398 26.25390625 69.6953125 C26.25068359 68.6640625 26.24746094 67.6328125 26.24414062 66.5703125 C26.23576172 65.49007812 26.22738281 64.40984375 26.21875 63.296875 C26.21423828 62.20890625 26.20972656 61.1209375 26.20507812 60 C26.19326776 57.30723711 26.17679778 54.61458312 26.15625 51.921875 C27.47625 51.921875 28.79625 51.921875 30.15625 51.921875 C30.15101318 52.60813965 30.14577637 53.2944043 30.14038086 54.00146484 C30.11964044 57.09992564 30.10659924 60.19837186 30.09375 63.296875 C30.08118164 64.91722656 30.08118164 64.91722656 30.06835938 66.5703125 C30.06513672 67.6015625 30.06191406 68.6328125 30.05859375 69.6953125 C30.05335693 70.64841309 30.04812012 71.60151367 30.04272461 72.58349609 C29.99982401 74.94511906 29.99982401 74.94511906 31.15625 76.921875 C32.47625 76.921875 33.79625 76.921875 35.15625 76.921875 C36.34649783 74.54137934 36.19771504 73.33829725 36.04418945 70.69775391 C34.00461902 29.87469673 34.00461902 29.87469673 41.671875 20.35546875 C46.26709254 15.45218961 51.39317097 11.37353803 57.15625 7.921875 C56.66125 6.436875 56.66125 6.436875 56.15625 4.921875 C53.11091771 6.24851415 51.41022027 7.54579275 49.40625 10.1796875 C44.80616845 15.77032378 40.57451869 20.88961054 33.140625 22.16015625 C26.63154658 22.66033908 20.68927611 22.34823921 14.9375 19.109375 C12.41262389 16.86504068 10.31021706 14.51978946 8.15625 11.921875 C6.68291491 10.5387441 5.18444401 9.18164216 3.65625 7.859375 C3.0271875 7.29089844 2.398125 6.72242188 1.75 6.13671875 C0.22514537 4.71980187 0.22514537 4.71980187 -1.84375 4.921875 Z " fill="#000000" transform="translate(21.84375,14.078125)"/>
<path d="M0 0 C3.12177233 1.68287927 5.39137035 3.7827407 7 7 C7.51512617 11.09157355 7.94367269 15.23589546 5.953125 18.95703125 C4.18601378 21.09315687 2.49101659 22.75449171 0 24 C-4.59698532 24.42308538 -8.70653278 24.53894467 -13 22.75 C-15.75938792 20.33553557 -16.84389902 18.24678056 -17.30078125 14.59765625 C-17.34136194 5.81869937 -17.34136194 5.81869937 -14 2 C-9.55637506 -0.70272426 -5.05867742 -0.80460854 0 0 Z M-10.9375 6 C-12.65886567 9.24021772 -12.52960415 12.41957756 -12 16 C-11.10242444 18.14780077 -11.10242444 18.14780077 -9 19 C-5.06905293 19.50030235 -2.8994213 19.5996142 0.4375 17.375 C2.47161336 14.28314769 2.60605429 12.63632575 2 9 C0.56338689 6.47993156 0.56338689 6.47993156 -2 5 C-5.43737531 4.57786619 -7.82090489 4.39143478 -10.9375 6 Z " fill="#000000" transform="translate(55,4)"/>
</svg>
