<?xml version="1.0" encoding="UTF-8"?>
<svg version="1.1" xmlns="http://www.w3.org/2000/svg" width="100" height="100">
<path d="M0 0 C0.80859375 1.640625 0.80859375 1.640625 1 4 C-0.58570661 6.12217932 -2.09290258 7.8833556 -3.9375 9.75 C-4.41896484 10.25660156 -4.90042969 10.76320313 -5.39648438 11.28515625 C-6.58653954 12.53412504 -7.79186613 13.7685103 -9 15 C-7.52278578 18.45201639 -5.56205999 20.64961936 -2.875 23.25 C-1.78832031 24.30960938 -1.78832031 24.30960938 -0.6796875 25.390625 C-0.12539062 25.92171875 0.42890625 26.4528125 1 27 C4.40847895 24.14159258 7.67886757 21.35100521 10.6875 18.0625 C11.8321875 17.0415625 11.8321875 17.0415625 13 16 C15.14453125 16.37109375 15.14453125 16.37109375 17 17 C17.61922604 27.01082094 16.4714697 34.8845844 10.1875 42.9375 C7.14507104 46.15486862 4.33057889 47.82560573 0 49 C-4.21949681 48.97182306 -8.00211693 48.33262769 -12 47 C-12.66 48.32 -13.32 49.64 -14 51 C-13.175 51.804375 -12.35 52.60875 -11.5 53.4375 C-8.719895 56.79911693 -8.19766938 59.56309632 -8.4453125 63.875 C-9.08617264 66.33012617 -9.82366401 67.36283609 -11.6875 69.0625 C-14.93921637 70.96444731 -16.34209118 71.53792777 -20 71 C-20.268125 71.78375 -20.53625 72.5675 -20.8125 73.375 C-22 76 -22 76 -25 78 C-28.1875 78.125 -28.1875 78.125 -31 78 C-31.0928125 78.86625 -31.0928125 78.86625 -31.1875 79.75 C-32.37691734 83.0437711 -34.06103182 84.14717224 -37 86 C-39.32275177 86.40047444 -41.65739357 86.7397104 -44 87 C-44.99 87.66 -45.98 88.32 -47 89 C-48.11375 89.2475 -49.2275 89.495 -50.375 89.75 C-54.82150373 91.28327715 -56.15887215 93.33644041 -59 97 C-62.97708832 100.50919557 -67.14915626 100.61363425 -72.265625 100.49609375 C-76.62492488 99.7051922 -79.23410904 97.35733934 -82 94 C-83.97297698 90.05404604 -83.44469875 85.30078514 -83 81 C-81.25 77.625 -81.25 77.625 -79 75 C-78.2575 74.05125 -77.515 73.1025 -76.75 72.125 C-76.1725 71.42375 -75.595 70.7225 -75 70 C-75.40992187 69.54109375 -75.81984375 69.0821875 -76.2421875 68.609375 C-76.78101562 67.99578125 -77.31984375 67.3821875 -77.875 66.75 C-78.40867187 66.14671875 -78.94234375 65.5434375 -79.4921875 64.921875 C-82.52400671 61.05748368 -83.31122945 58.17308619 -83.375 53.25 C-83.40335937 52.26515625 -83.43171875 51.2803125 -83.4609375 50.265625 C-82.19555062 41.30068069 -76.38633793 35.7920516 -70.125 29.6875 C-69.33480469 28.89021484 -68.54460937 28.09292969 -67.73046875 27.27148438 C-61.82888874 21.43373177 -57.24635735 17.58349983 -48.625 17.5 C-42.40131109 17.62788402 -38.76126208 19.13000865 -34 23 C-33.01 23.66 -32.02 24.32 -31 25 C-31.04640625 24.27554687 -31.0928125 23.55109375 -31.140625 22.8046875 C-31.30912606 18.29126617 -31.37897709 14.87329503 -29.5625 10.6875 C-20.84045976 1.53999438 -12.26611804 -0.35726557 0 0 Z M-22.765625 11.38671875 C-25.36492069 14.11299153 -26.30834517 16.46108149 -26.4375 20.125 C-26.05204664 23.5390155 -25.55385995 25.09946143 -24 28 C-24.24884719 31.85713142 -26.5513566 34.15641412 -29 37 C-26.03 39.97 -23.06 42.94 -20 46 C-18.6696875 44.7315625 -18.6696875 44.7315625 -17.3125 43.4375 C-14.35447696 40.99091085 -14.35447696 40.99091085 -11.5625 41.0625 C-10.716875 41.371875 -9.87125 41.68125 -9 42 C-3.99099874 43.87354921 -3.99099874 43.87354921 1.125 43 C6.74109603 39.09315059 9.84006054 34.35982175 12 28 C11.505 26.515 11.505 26.515 11 25 C10.23816406 25.77537109 10.23816406 25.77537109 9.4609375 26.56640625 C8.77257812 27.22511719 8.08421875 27.88382813 7.375 28.5625 C6.36566406 29.55443359 6.36566406 29.55443359 5.3359375 30.56640625 C3 32 3 32 0.08984375 32.04296875 C-3.75932344 30.74369234 -6.07391331 28.62758218 -8.8125 25.75 C-9.30169922 25.27175781 -9.79089844 24.79351563 -10.29492188 24.30078125 C-13.17296792 21.3630247 -14.81588288 19.16387958 -15 15 C-13.21988101 11.25238107 -10.63910291 8.1851242 -8 5 C-13.4380899 5 -18.54135392 8.06898372 -22.765625 11.38671875 Z M-67.75 34.4375 C-68.73806641 35.42073242 -68.73806641 35.42073242 -69.74609375 36.42382812 C-76.51570618 43.26368827 -76.51570618 43.26368827 -78.4375 52.4375 C-78.45683594 53.34371094 -78.47617188 54.24992187 -78.49609375 55.18359375 C-77.09440725 63.14119981 -69.49281457 68.90960084 -64.0625 74.375 C-62.72155273 75.76525391 -62.72155273 75.76525391 -61.35351562 77.18359375 C-60.48533203 78.05886719 -59.61714844 78.93414062 -58.72265625 79.8359375 C-57.93640869 80.63563965 -57.15016113 81.4353418 -56.34008789 82.25927734 C-54.12138828 84.19145136 -54.12138828 84.19145136 -51.34936523 84.41650391 C-48.71115803 84.19284755 -48.71115803 84.19284755 -46.6875 81.5 C-46.130625 80.675 -45.57375 79.85 -45 79 C-44.2575 79.391875 -43.515 79.78375 -42.75 80.1875 C-40.05155558 81.29892459 -40.05155558 81.29892459 -37.75 80.0625 C-35.32266878 77.20171677 -35.27705375 74.67096215 -35 71 C-34.01 71.66 -33.02 72.32 -32 73 C-29.45792029 73.33343551 -29.45792029 73.33343551 -27 73 C-24.81668311 71.23863645 -24.81668311 71.23863645 -24.8046875 69.0546875 C-24.82789063 68.33539063 -24.85109375 67.61609375 -24.875 66.875 C-24.91625 65.59625 -24.9575 64.3175 -25 63 C-24.278125 63.515625 -23.55625 64.03125 -22.8125 64.5625 C-20.12758775 66.20385183 -20.12758775 66.20385183 -17.3125 66 C-14.7509969 65.18328141 -14.7509969 65.18328141 -13.6875 62.4375 C-13.460625 61.633125 -13.23375 60.82875 -13 60 C-18.53286522 53.46712711 -24.48053639 47.48409327 -30.65429688 41.56054688 C-31.34458984 40.88443359 -32.03488281 40.20832031 -32.74609375 39.51171875 C-33.37185303 38.90803467 -33.9976123 38.30435059 -34.64233398 37.68237305 C-36 36 -36 36 -36 33 C-35.01 32.34 -34.02 31.68 -33 31 C-34.26572233 29.84852339 -35.53777906 28.70400686 -36.8125 27.5625 C-37.52019531 26.92441406 -38.22789063 26.28632813 -38.95703125 25.62890625 C-41.92179167 23.26503418 -44.56158558 22.81001726 -48.25 22.6875 C-48.97703125 22.65011719 -49.7040625 22.61273437 -50.453125 22.57421875 C-57.7939779 23.80144723 -62.77745469 29.34039193 -67.75 34.4375 Z M-72.7265625 76.50390625 C-75.85980258 79.90147317 -77.8129748 82.08045945 -78.75 86.6875 C-77.78325846 90.95727512 -76.57632467 92.48896353 -73 95 C-69.63051671 96.00131485 -69.63051671 96.00131485 -66 95 C-63.06487998 92.91966932 -60.51788037 90.56366001 -58 88 C-59.53218685 84.36938333 -61.7183144 82.0136227 -64.5 79.25 C-65.2940625 78.45078125 -66.088125 77.6515625 -66.90625 76.828125 C-69.48545435 74.57613314 -70.11923646 74.23281909 -72.7265625 76.50390625 Z " fill="#000000" transform="translate(83,0)"/>
</svg>
