<?xml version="1.0" encoding="UTF-8"?>
<svg version="1.1" xmlns="http://www.w3.org/2000/svg" width="100" height="100">
<path d="M0 0 C1.20269531 -0.02578125 2.40539063 -0.0515625 3.64453125 -0.078125 C8.20294379 0.34404331 11.44269102 1.69184501 14.8671875 4.75 C18.1875 8.91666667 18.1875 8.91666667 18.1875 12.25 C19.08581543 12.23952637 19.98413086 12.22905273 20.90966797 12.21826172 C24.23814447 12.1842053 27.56643622 12.15911382 30.89501953 12.14013672 C32.33645547 12.13007037 33.77787095 12.1164162 35.21923828 12.09912109 C37.28943934 12.07489988 39.35937076 12.06352359 41.4296875 12.0546875 C43.29923096 12.03897705 43.29923096 12.03897705 45.20654297 12.02294922 C48.1875 12.25 48.1875 12.25 50.1875 14.25 C50.38565184 16.67830061 50.46033267 18.99254019 50.44628906 21.421875 C50.4497937 22.16022583 50.45329834 22.89857666 50.45690918 23.65930176 C50.46573049 26.10629608 50.45987604 28.5530026 50.453125 31 C50.45447154 32.69628963 50.45641197 34.39257888 50.45892334 36.08886719 C50.46187514 39.6465217 50.45757519 43.20407588 50.44824219 46.76171875 C50.43684759 51.32851141 50.44340677 55.895069 50.45538712 60.46185303 C50.46260422 63.96535014 50.46031848 67.46879126 50.45513153 70.97229004 C50.45379462 72.65645373 50.4554442 74.34062246 50.46009064 76.02478027 C50.46515347 78.37603274 50.45744933 80.72690123 50.44628906 83.078125 C50.45033752 83.77844849 50.45438599 84.47877197 50.45855713 85.20031738 C50.41602915 90.02147085 50.41602915 90.02147085 48.1875 92.25 C45.15485625 92.44893477 42.21349434 92.52263074 39.1796875 92.50878906 C37.77955414 92.51404602 37.77955414 92.51404602 36.35113525 92.51940918 C33.25484863 92.52823702 30.15878909 92.52237361 27.0625 92.515625 C24.91780554 92.51697135 22.77311138 92.51891162 20.62841797 92.52142334 C16.12920227 92.52437603 11.63006587 92.52007228 7.13085938 92.51074219 C1.35340055 92.49934761 -4.42387247 92.5059063 -10.20132446 92.51788712 C-14.63128061 92.52510179 -19.06119245 92.52281959 -23.4911499 92.51763153 C-25.62188743 92.51629395 -27.75262893 92.51794653 -29.88336182 92.52259064 C-32.85724601 92.5276494 -35.83082605 92.51995476 -38.8046875 92.50878906 C-39.69202576 92.51283752 -40.57936401 92.51688599 -41.49359131 92.52105713 C-47.5839724 92.4785276 -47.5839724 92.4785276 -49.8125 90.25 C-50.01065184 87.82169939 -50.08533267 85.50745981 -50.07128906 83.078125 C-50.0747937 82.33977417 -50.07829834 81.60142334 -50.08190918 80.84069824 C-50.09073049 78.39370392 -50.08487604 75.9469974 -50.078125 73.5 C-50.07947154 71.80371037 -50.08141197 70.10742112 -50.08392334 68.41113281 C-50.08687514 64.8534783 -50.08257519 61.29592412 -50.07324219 57.73828125 C-50.06184759 53.17148859 -50.06840677 48.604931 -50.08038712 44.03814697 C-50.08760422 40.53464986 -50.08531848 37.03120874 -50.08013153 33.52770996 C-50.07879462 31.84354627 -50.0804442 30.15937754 -50.08509064 28.47521973 C-50.09015347 26.12396726 -50.08244933 23.77309877 -50.07128906 21.421875 C-50.07533752 20.72155151 -50.07938599 20.02122803 -50.08355713 19.29968262 C-50.04102915 14.47852915 -50.04102915 14.47852915 -47.8125 12.25 C-44.83154297 12.02294922 -44.83154297 12.02294922 -41.0546875 12.0546875 C-40.06011032 12.05893234 -40.06011032 12.05893234 -39.04544067 12.06326294 C-36.92594417 12.07446565 -34.80686896 12.09956949 -32.6875 12.125 C-31.25130818 12.13502972 -29.81510975 12.14415559 -28.37890625 12.15234375 C-24.85663372 12.174405 -21.33460797 12.20893506 -17.8125 12.25 C-17.6789209 11.46141602 -17.5453418 10.67283203 -17.40771484 9.86035156 C-16.70615364 6.78361146 -15.8625018 5.94409427 -13.4375 4 C-12.52871094 3.24976563 -12.52871094 3.24976563 -11.6015625 2.484375 C-7.90077261 -0.06900842 -4.36512483 0.05578434 0 0 Z M-11.8125 9.25 C-12.1425 10.24 -12.4725 11.23 -12.8125 12.25 C-4.2325 12.25 4.3475 12.25 13.1875 12.25 C10.53426718 7.26568536 10.53426718 7.26568536 6.1875 5.25 C-0.7798867 4.41546622 -6.56429451 4.28548129 -11.8125 9.25 Z M-45.8125 18.25 C-46.0120697 20.80750453 -46.09236826 23.25438141 -46.078125 25.8125 C-46.08003845 26.55959229 -46.0819519 27.30668457 -46.08392334 28.07641602 C-46.08528498 29.65674171 -46.08159 31.23707858 -46.07324219 32.81738281 C-46.062542 35.24048922 -46.07313779 37.66285423 -46.0859375 40.0859375 C-46.0846159 41.61979331 -46.0820535 43.15364865 -46.078125 44.6875 C-46.08217346 45.41461182 -46.08622192 46.14172363 -46.09039307 46.89086914 C-46.17981502 51.02469633 -46.17981502 51.02469633 -43.8125 54.25 C-41.23146694 54.42502995 -38.75941837 54.48162279 -36.1796875 54.4453125 C-35.42785187 54.4424826 -34.67601624 54.43965271 -33.90139771 54.43673706 C-31.49660422 54.42552874 -29.09218119 54.40042352 -26.6875 54.375 C-25.05859912 54.36497102 -23.42969242 54.35584503 -21.80078125 54.34765625 C-17.80454444 54.32558735 -13.80858506 54.29105351 -9.8125 54.25 C-9.1525 52.6 -8.4925 50.95 -7.8125 49.25 C-2.5325 49.25 2.7475 49.25 8.1875 49.25 C8.8475 50.9 9.5075 52.55 10.1875 54.25 C14.99298597 54.29936883 19.79832494 54.33570443 24.60400391 54.35986328 C26.23944672 54.36993254 27.87487149 54.38358881 29.51025391 54.40087891 C31.8584437 54.42508705 34.20639588 54.43647357 36.5546875 54.4453125 C37.65476639 54.46079636 37.65476639 54.46079636 38.77706909 54.47659302 C40.58212697 54.47699368 42.3865783 54.37212755 44.1875 54.25 C46.67600674 51.76149326 46.4336233 50.2878994 46.46539307 46.89086914 C46.4613446 46.16375732 46.45729614 45.43664551 46.453125 44.6875 C46.45503845 43.94040771 46.4569519 43.19331543 46.45892334 42.42358398 C46.46028498 40.84325829 46.45659 39.26292142 46.44824219 37.68261719 C46.437542 35.25951078 46.44813779 32.83714577 46.4609375 30.4140625 C46.4596159 28.88020669 46.4570535 27.34635135 46.453125 25.8125 C46.45717346 25.08538818 46.46122192 24.35827637 46.46539307 23.60913086 C46.55481502 19.47530367 46.55481502 19.47530367 44.1875 16.25 C41.39698909 16.05136657 38.70570952 15.97730149 35.9140625 15.99121094 C35.05866882 15.9877063 34.20327515 15.98420166 33.32196045 15.98059082 C30.48539186 15.97176523 27.64907127 15.97762555 24.8125 15.984375 C22.84716748 15.98302859 20.88183528 15.98108826 18.91650391 15.97857666 C14.79391311 15.97562428 10.67140887 15.97992672 6.54882812 15.98925781 C1.2556367 16.0006524 -4.03735191 15.99409354 -9.33053589 15.98211288 C-13.38990822 15.97489737 -17.4492322 15.97718079 -21.50860596 15.98236847 C-23.46071395 15.98370582 -25.41282628 15.98205427 -27.3649292 15.97740936 C-30.08975915 15.9723492 -32.81425736 15.98004712 -35.5390625 15.99121094 C-36.75786102 15.98513824 -36.75786102 15.98513824 -38.00128174 15.97894287 C-42.37438825 15.84001713 -42.37438825 15.84001713 -45.8125 18.25 Z M-5.8125 54.25 C-5.52266731 57.55683466 -5.52266731 57.55683466 -3.8125 60.25 C0.20407143 60.47918242 0.20407143 60.47918242 4.1875 60.25 C4.8475 59.59 5.5075 58.93 6.1875 58.25 C5.89766731 54.94316534 5.89766731 54.94316534 4.1875 52.25 C-1.40534778 51.60050588 -1.40534778 51.60050588 -5.8125 54.25 Z M-45.8125 58.25 C-45.85375 62.82875 -45.895 67.4075 -45.9375 72.125 C-45.95570801 73.56858887 -45.97391602 75.01217773 -45.99267578 76.49951172 C-45.9976709 77.63146973 -46.00266602 78.76342773 -46.0078125 79.9296875 C-46.01828613 81.09226074 -46.02875977 82.25483398 -46.03955078 83.45263672 C-46.10511997 86.38910279 -46.10511997 86.38910279 -43.8125 88.25 C-41.02198909 88.44863343 -38.33070952 88.52269851 -35.5390625 88.50878906 C-34.68366882 88.5122937 -33.82827515 88.51579834 -32.94696045 88.51940918 C-30.11039186 88.52823477 -27.27407127 88.52237445 -24.4375 88.515625 C-22.47216748 88.51697141 -20.50683528 88.51891174 -18.54150391 88.52142334 C-14.41891311 88.52437572 -10.29640887 88.52007328 -6.17382812 88.51074219 C-0.8806367 88.4993476 4.41235191 88.50590646 9.70553589 88.51788712 C13.76490822 88.52510263 17.8242322 88.52281921 21.88360596 88.51763153 C23.83571395 88.51629418 25.78782628 88.51794573 27.7399292 88.52259064 C30.46475915 88.5276508 33.18925736 88.51995288 35.9140625 88.50878906 C36.72659485 88.51283752 37.5391272 88.51688599 38.37628174 88.52105713 C42.74938825 88.65998287 42.74938825 88.65998287 46.1875 86.25 C46.46626767 83.33512078 46.46626767 83.33512078 46.3828125 79.9296875 C46.37781738 78.79772949 46.37282227 77.66577148 46.36767578 76.49951172 C46.34946777 75.05592285 46.33125977 73.61233398 46.3125 72.125 C46.27125 67.54625 46.23 62.9675 46.1875 58.25 C34.3075 58.25 22.4275 58.25 10.1875 58.25 C9.5275 59.9 8.8675 61.55 8.1875 63.25 C2.9075 63.25 -2.3725 63.25 -7.8125 63.25 C-8.4725 61.6 -9.1325 59.95 -9.8125 58.25 C-21.6925 58.25 -33.5725 58.25 -45.8125 58.25 Z " fill="#000000" transform="translate(49.8125,3.75)"/>
</svg>
