<?xml version="1.0" encoding="UTF-8"?>
<svg version="1.1" xmlns="http://www.w3.org/2000/svg" width="100" height="100">
<path d="M0 0 C1.14239136 0.00303635 1.14239136 0.00303635 2.30786133 0.00613403 C3.10619385 0.00438171 3.90452637 0.00262939 4.72705078 0.00082397 C7.37900942 -0.00359511 10.03090195 -0.00065636 12.68286133 0.00271606 C14.51749688 0.00204304 16.35213234 0.00107303 18.18676758 -0.00018311 C22.03703661 -0.00166015 25.88728248 0.0004947 29.73754883 0.00515747 C34.6844263 0.01085476 39.63124952 0.0075758 44.578125 0.00158501 C48.36808688 -0.00202042 52.15803579 -0.00088211 55.94799805 0.0017128 C57.77254238 0.00238212 59.59708788 0.00155347 61.42163086 -0.00076675 C63.96707294 -0.00329298 66.51242592 0.00054687 69.05786133 0.00613403 C69.81945557 0.0041098 70.5810498 0.00208557 71.36572266 0 C76.56859875 0.02126599 76.56859875 0.02126599 77.68286133 1.13552856 C77.7769982 3.19109518 77.80029131 5.24993038 77.79638672 7.30764771 C77.79653275 7.95152939 77.79667877 8.59541107 77.79682922 9.25880432 C77.79613018 11.39613159 77.78833824 13.53337269 77.78051758 15.67068481 C77.77865337 17.14899142 77.77722948 18.62729864 77.77622986 20.10560608 C77.77240492 24.00351659 77.76257484 27.90139005 77.75152588 31.79928589 C77.74131125 35.77399189 77.73673213 39.74870386 77.73168945 43.72341919 C77.72095255 51.52747257 77.70387642 59.33149538 77.68286133 67.13552856 C78.63161133 67.23865356 79.58036133 67.34177856 80.55786133 67.44802856 C83.68286133 68.13552856 83.68286133 68.13552856 85.68286133 71.13552856 C85.49536133 73.69802856 85.49536133 73.69802856 84.68286133 76.13552856 C80.78068955 78.73697642 77.48825811 78.43092295 72.96044922 78.42605591 C71.62343712 78.43613174 71.62343712 78.43613174 70.25941467 78.44641113 C67.3080592 78.46543495 64.35693057 78.46931741 61.40551758 78.47146606 C59.3567241 78.4778905 57.30793154 78.48461859 55.25914001 78.49163818 C50.96261467 78.50362161 46.66616979 78.50731787 42.36962891 78.50613403 C36.86016751 78.50593068 31.35122103 78.53324483 25.84188175 78.56767845 C21.60999677 78.58989855 17.37823672 78.59397309 13.14629936 78.59291458 C11.11488506 78.59527746 9.08346767 78.60413943 7.05211067 78.61957932 C4.21259443 78.63914215 1.37420171 78.63343974 -1.46533203 78.62136841 C-2.30650574 78.63260742 -3.14767944 78.64384644 -4.01434326 78.65542603 C-7.68236622 78.61573515 -9.86875177 78.46277863 -12.87428284 76.26922607 C-14.31713867 74.13552856 -14.31713867 74.13552856 -14.25463867 71.51052856 C-13.31713867 69.13552856 -13.31713867 69.13552856 -10.31713867 67.13552856 C-8.99713867 67.13552856 -7.67713867 67.13552856 -6.31713867 67.13552856 C-6.31935928 66.31089615 -6.3215799 65.48626373 -6.3238678 64.63664246 C-6.34386919 56.88154599 -6.35911202 49.12646196 -6.36895084 41.37134647 C-6.37417903 37.38395656 -6.38127551 33.39658789 -6.39257812 29.40921021 C-6.40340929 25.56427742 -6.40941599 21.71936512 -6.41201591 17.87441826 C-6.41386975 16.40433873 -6.41748958 14.93426038 -6.42286873 13.46418953 C-6.43008222 11.41198389 -6.43112949 9.35986389 -6.43066406 7.30764771 C-6.43288467 6.13738541 -6.43510529 4.96712311 -6.43739319 3.76139832 C-6.22361826 -0.90657701 -4.1494806 0.01696039 0 0 Z M-0.31713867 6.13552856 C-0.31713867 26.26552856 -0.31713867 46.39552856 -0.31713867 67.13552856 C23.44286133 67.13552856 47.20286133 67.13552856 71.68286133 67.13552856 C71.68286133 47.00552856 71.68286133 26.87552856 71.68286133 6.13552856 C47.92286133 6.13552856 24.16286133 6.13552856 -0.31713867 6.13552856 Z " fill="#000000" transform="translate(14.317138671875,21.864471435546875)"/>
<path d="M0 0 C0.9607695 0.00007553 1.921539 0.00015106 2.91142273 0.00022888 C3.94588028 0.00539017 4.98033783 0.01055145 6.04614258 0.01586914 C7.63789055 0.01799156 7.63789055 0.01799156 9.26179504 0.02015686 C12.65478318 0.02575933 16.0477056 0.03831225 19.44067383 0.05102539 C21.739501 0.05604007 24.03832921 0.06060303 26.3371582 0.06469727 C31.97585254 0.07572956 37.61450849 0.0924701 43.25317383 0.11352539 C43.6353615 1.76967196 43.96712485 3.43809563 44.25317383 5.11352539 C42.6545142 6.71218502 40.94861351 6.2783607 38.73339844 6.31884766 C37.77247787 6.33879288 36.81155731 6.3587381 35.82151794 6.37928772 C34.77673782 6.39600021 33.7319577 6.41271271 32.65551758 6.42993164 C31.05952477 6.46110329 31.05952477 6.46110329 29.43128967 6.49290466 C26.01781943 6.55851793 22.60426954 6.61733962 19.19067383 6.67602539 C16.88272274 6.71919942 14.57477983 6.76281333 12.2668457 6.80688477 C6.595707 6.91421123 0.92448831 7.01595531 -4.74682617 7.11352539 C-4.41682617 8.76352539 -4.08682617 10.41352539 -3.74682617 12.11352539 C2.19317383 12.44352539 8.13317383 12.77352539 14.25317383 13.11352539 C14.25317383 14.76352539 14.25317383 16.41352539 14.25317383 18.11352539 C10.85779531 18.25927866 7.46322481 18.34774081 4.06567383 18.42602539 C3.1059668 18.46791992 2.14625977 18.50981445 1.1574707 18.55297852 C-5.97843731 18.67643713 -5.97843731 18.67643713 -9.88745117 15.81274414 C-12.33279244 12.26288948 -12.42676139 10.34423344 -11.74682617 6.11352539 C-8.52847028 1.00854708 -5.84946586 -0.01535293 0 0 Z " fill="#000000" transform="translate(31.746826171875,42.886474609375)"/>
<path d="M0 0 C5.1530074 -0.19844701 9.37140851 0.42080122 14.3125 1.875 C15.52550781 2.22304688 16.73851563 2.57109375 17.98828125 2.9296875 C21 4 21 4 23 6 C22.9375 8 22.9375 8 22 10 C19.4375 11.25 19.4375 11.25 17 12 C17.44472656 12.37511719 17.88945313 12.75023438 18.34765625 13.13671875 C20.06170453 14.68678063 21.59920192 16.15956683 23 18 C22.875 20.875 22.875 20.875 22 23 C18.60807637 22.40716379 16.7892243 21.23256811 14.25 18.9375 C13.63640625 18.38964844 13.0228125 17.84179688 12.390625 17.27734375 C11.93171875 16.85582031 11.4728125 16.43429688 11 16 C10.67 17.98 10.34 19.96 10 22 C8.35 22 6.7 22 5 22 C4.15820605 19.27318889 3.32636931 16.54398557 2.5 13.8125 C2.26152344 13.04357422 2.02304687 12.27464844 1.77734375 11.48242188 C0.59786383 7.55643872 -0.3326262 4.14951179 0 0 Z " fill="#000000" transform="translate(53,55)"/>
</svg>
