<?xml version="1.0" encoding="UTF-8"?>
<svg version="1.1" xmlns="http://www.w3.org/2000/svg" width="909" height="238">
<path d="M0 0 C299.97 0 599.94 0 909 0 C909 78.54 909 157.08 909 238 C609.03 238 309.06 238 0 238 C0 159.46 0 80.92 0 0 Z " fill="#C4C1BC" transform="translate(0,0)"/>
<path d="M0 0 C0.07992188 0.6290625 0.15984375 1.258125 0.2421875 1.90625 C0.78312342 4.15327773 0.78312342 4.15327773 2.8203125 4.90625 C3.58085938 5.1021875 4.34140625 5.298125 5.125 5.5 C8.81245917 6.57260998 11.77175469 7.94802609 15.05859375 9.9765625 C17.44401903 11.2340704 19.87163181 11.98662221 22.4375 12.8125 C26.40010909 14.16728392 28.78982375 15.49334035 31.6875 18.5 C38.41222201 24.90777814 49.46191479 26.13401729 58.4375 26.5625 C64.55882666 26.3880384 69.90732307 24.64947984 75.68310547 22.80151367 C82.53701194 20.67644577 90.53456451 18.65760489 97.2265625 22.16796875 C98.50445162 23.07674647 99.77089422 24.00190756 101.0234375 24.9453125 C104.80106767 26.96104401 108.99560654 26.07400251 113 25 C114.485 24.01 114.485 24.01 116 23 C117.32 23 118.64 23 120 23 C120 69.2 120 115.4 120 163 C-15.96 163 -151.92 163 -292 163 C-288 158 -288 158 -285.6328125 157.40625 C-280.22617261 157.60836738 -276.8338279 158.42195845 -272 161 C-266.84103924 161.65659501 -264.28719851 160.68431745 -259.89819336 158.07202148 C-256.88946694 156.37281663 -253.69074036 155.12263431 -250.5 153.8125 C-244.009432 151.07958916 -238.04628454 147.84963141 -232.13671875 144.02075195 C-228.18052895 141.50525233 -224.51455388 140.18858924 -220 139 C-218.28881918 138.23863761 -216.59785407 137.42912383 -214.9375 136.5625 C-213.65746094 135.90314453 -213.65746094 135.90314453 -212.3515625 135.23046875 C-211.57554687 134.82441406 -210.79953125 134.41835937 -210 134 C-203.96445072 130.92305331 -197.88641087 128.28195089 -191.50708008 126.00878906 C-183.4960436 123.14030494 -175.9730729 119.65273003 -168.42578125 115.734375 C-165 114 -165 114 -162.16796875 112.953125 C-159.66883445 112.08656538 -159.66883445 112.08656538 -158 109 C-157.57409771 107.40355333 -157.18113957 105.79813329 -156.8125 104.1875 C-155.49437165 99.88789085 -154.2411078 96.87694789 -150.62109375 94.11328125 C-144.84405594 91.65954686 -138.35273167 91.59423612 -132.15234375 91.17333984 C-129.07502164 90.92550651 -126.04994326 90.47452575 -123 90 C-122.67 88.02 -122.34 86.04 -122 84 C-120.7625 83.855625 -119.525 83.71125 -118.25 83.5625 C-109.29036809 81.56675261 -101.2050028 74.51395453 -96.09765625 67.0390625 C-94.55170501 64.16722425 -93.62157589 61.22061027 -92.7109375 58.09765625 C-91.6704475 55.02763904 -89.86858408 52.62769637 -88 50 C-87.54625 49.05125 -87.0925 48.1025 -86.625 47.125 C-85.22204636 44.42701223 -83.84080883 42.51479046 -81.9375 40.1875 C-79.11016007 36.55630852 -78.29520692 33.62472878 -77.5625 29.14453125 C-76.93043988 26.73480205 -76.02865325 25.5190148 -74.4375 23.625 C-71.91080409 20.51578053 -71.72496295 18.28471211 -71.625 14.3125 C-71.37168611 9.45953919 -71.37168611 9.45953919 -69.7109375 7.40625 C-65.33798573 4.61075572 -60.05388718 3.96306566 -55 5 C-54.3915625 5.515625 -53.783125 6.03125 -53.15625 6.5625 C-50.01998199 8.65334534 -47.85962989 7.94276598 -44.1875 7.4375 C-36.53007289 6.66938167 -36.53007289 6.66938167 -33.125 9 C-29.83338916 11.10663094 -28.0930957 11.52881402 -24.24609375 10.81640625 C-19.37817022 9.04702187 -15.24556118 5.90652768 -11 3 C-7.01795839 0.39863651 -4.80160309 -0.33499556 0 0 Z " fill="#61A0FE" transform="translate(789,75)"/>
<path d="M0 0 C1.2375 0.4640625 1.2375 0.4640625 2.5 0.9375 C3.716875 1.185 4.93375 1.4325 6.1875 1.6875 C9.5 2.9375 9.5 2.9375 10.9375 5.5625 C11.123125 6.34625 11.30875 7.13 11.5 7.9375 C14.12187494 6.88875002 15.29371361 6.28818687 16.75 3.8125 C17.12125 2.884375 17.12125 2.884375 17.5 1.9375 C19.81 2.2675 22.12 2.5975 24.5 2.9375 C24.5 35.6075 24.5 68.2775 24.5 101.9375 C-69.88 101.9375 -164.26 101.9375 -261.5 101.9375 C-255.77083333 96.20833333 -255.77083333 96.20833333 -250.6875 95.125 C-247.02087985 94.27783867 -245.15466874 92.86504721 -242.375 90.296875 C-238.01814362 87.13815412 -232.53625674 85.705116 -227.5 83.9375 C-225.49899794 83.23200241 -223.49891592 82.52388686 -221.5 81.8125 C-220.654375 81.52117187 -219.80875 81.22984375 -218.9375 80.9296875 C-216.40752043 79.97459904 -216.40752043 79.97459904 -213.91015625 78.3671875 C-211.5 76.9375 -211.5 76.9375 -207.9375 76.1875 C-200.7678777 74.58664922 -193.5619457 70.21889421 -188.5 64.9375 C-182.38014968 61.01155828 -177.5298014 60.59588852 -170.34375 60.2734375 C-164.17145986 59.73398938 -158.36743004 58.03138955 -152.40234375 56.42529297 C-149.62320113 55.71267401 -146.81526935 55.17507083 -144 54.625 C-127.58639846 51.18040243 -108.895561 46.90851111 -94.25390625 38.55859375 C-74.21582416 27.24700954 -55.8503498 26.74259277 -33.5 28.9375 C-33.06083252 27.98121704 -33.06083252 27.98121704 -32.61279297 27.00561523 C-31.2513012 24.47529563 -30.24348002 24.07209465 -27.625 23 C-23.84887246 21.24875244 -21.77195692 19.5202013 -19.5 15.9375 C-19.12875 14.7309375 -19.12875 14.7309375 -18.75 13.5 C-16.75473562 9.40970802 -13.16908826 7.48326233 -9.5 4.9375 C-8.55640625 4.18146484 -8.55640625 4.18146484 -7.59375 3.41015625 C-3.18558673 -0.07963967 -3.18558673 -0.07963967 0 0 Z " fill="#142467" transform="translate(884.5,136.0625)"/>
<path d="M0 0 C1.38240429 1.24005771 2.73453013 2.51431637 4.0625 3.8125 C8.08495613 7.44968841 11.87168465 9.59303309 16.85546875 11.65625 C19.92023331 12.96591337 22.85468398 14.41967914 25.81640625 15.94287109 C35.695325 21.0158927 45.10876247 25.76947423 56.3125 26.8125 C64.68867916 27.70468868 71.01393045 31.065713 78.27587891 35.05761719 C84.22761987 38.31076362 89.0553099 40.8013104 96 40 C97.05574219 39.505 97.05574219 39.505 98.1328125 39 C102.13060769 37.60567361 105.92105635 37.70502797 110.125 37.625 C117.82178906 37.35468088 123.91082054 36.09865747 131 33 C138.23495792 30.38737631 142.92084685 29.16038191 150.1875 32.4375 C156.41018863 35.18518069 162.79487649 36.12301902 169.5703125 35.91015625 C170.37235107 35.88735596 171.17438965 35.86455566 172.00073242 35.84106445 C173.60379303 35.78115647 175.20609226 35.69319342 176.8059082 35.57495117 C179.05859375 35.484375 179.05859375 35.484375 183 36 C185.22265625 38.890625 185.22265625 38.890625 187 42 C191.88500645 44.9980184 198.28191113 44.61467736 203.875 44.859375 C209.38795555 45.27940971 212.66920657 46.50046779 216.66845703 50.38671875 C218.44128649 52.53465734 219.18734037 54.40547844 219.75 57.125 C220.55075518 60.79703448 221.39476657 63.22433074 224 66 C225.87707435 66.90059039 225.87707435 66.90059039 228 67.375 C231.67150612 68.46350742 234.69824145 69.87473012 238 71.8125 C243.45123622 74.91207138 249.05650812 76.94351751 254.98632812 78.9074707 C260.7358187 80.82240472 265.6312775 82.6312775 270 87 C175.29 87 80.58 87 -17 87 C-17 57.96 -17 28.92 -17 -1 C-4 -2 -4 -2 0 0 Z " fill="#61A0FE" transform="translate(17,151)"/>
<path d="M0 0 C0.11988281 0.94359375 0.11988281 0.94359375 0.2421875 1.90625 C0.78312342 4.15327773 0.78312342 4.15327773 2.8203125 4.90625 C3.96113281 5.20015625 3.96113281 5.20015625 5.125 5.5 C8.81245917 6.57260998 11.77175469 7.94802609 15.05859375 9.9765625 C17.44401903 11.2340704 19.87163181 11.98662221 22.4375 12.8125 C26.40010909 14.16728392 28.78982375 15.49334035 31.6875 18.5 C38.41222201 24.90777814 49.46191479 26.13401729 58.4375 26.5625 C64.55882666 26.3880384 69.90732307 24.64947984 75.68310547 22.80151367 C82.53701194 20.67644577 90.53456451 18.65760489 97.2265625 22.16796875 C98.50445162 23.07674647 99.77089422 24.00190756 101.0234375 24.9453125 C104.80106767 26.96104401 108.99560654 26.07400251 113 25 C113.99 24.34 114.98 23.68 116 23 C117.32 23 118.64 23 120 23 C120 29.27 120 35.54 120 42 C116.55063108 43.72468446 112.66090963 43.95344144 108.875 44.5 C107.92955322 44.63744629 106.98410645 44.77489258 106.01000977 44.91650391 C99.86214736 45.72346878 93.79001303 46.13159104 87.59765625 46.2421875 C86.5234845 46.26306427 86.5234845 46.26306427 85.4276123 46.28436279 C81.85226768 46.34677604 78.28042174 46.37366666 74.70458984 46.35742188 C72.72966553 46.37772461 72.72966553 46.37772461 70.71484375 46.3984375 C69.54042725 46.39505371 68.36601074 46.39166992 67.15600586 46.38818359 C63.06723103 47.18082456 61.69775275 48.90929243 59 52 C54.56400902 55.6480959 49.71044626 58.37144933 44.5625 60.875 C43.87800781 61.21233154 43.19351563 61.54966309 42.48828125 61.8972168 C35.10064656 65.50087939 27.60026052 68.869433 20 72 C19.01108765 72.41608521 19.01108765 72.41608521 18.00219727 72.84057617 C13.58472339 74.61596174 9.7276326 75.36391408 4.9375 75.6875 C-2.61309745 76.56249431 -8.07523091 79.1921883 -14.5625 83.02734375 C-19.61860318 85.92885751 -24.2046881 88.43615112 -30.1875 88.3125 C-31.41533203 88.30669922 -31.41533203 88.30669922 -32.66796875 88.30078125 C-35 88 -35 88 -36.86987305 86.99829102 C-39.24076891 85.88716286 -40.81083071 85.74716562 -43.4140625 85.7265625 C-44.25275879 85.70867676 -45.09145508 85.69079102 -45.95556641 85.67236328 C-47.27693604 85.64891846 -47.27693604 85.64891846 -48.625 85.625 C-56.28258556 85.37216164 -62.07670321 84.37448459 -69 81 C-70.7783899 80.35780365 -72.57083638 79.75325651 -74.375 79.1875 C-75.16648437 78.93355469 -75.95796875 78.67960937 -76.7734375 78.41796875 C-80.32186672 77.75186011 -82.24752696 78.51356595 -85.25390625 80.45703125 C-88.69183484 82.38872654 -92.09978019 83.03540833 -95.9375 83.6875 C-96.62779297 83.81705078 -97.31808594 83.94660156 -98.02929688 84.08007812 C-102.05206271 84.80074423 -105.92220605 85.40956009 -110 85 C-111.875 83.5 -111.875 83.5 -113 82 C-112.20335937 81.443125 -111.40671875 80.88625 -110.5859375 80.3125 C-101.84684757 74.01865421 -95.78698144 68.64667754 -92.7109375 58.09765625 C-91.6704475 55.02763904 -89.86858408 52.62769637 -88 50 C-87.319375 48.576875 -87.319375 48.576875 -86.625 47.125 C-85.22204636 44.42701223 -83.84080883 42.51479046 -81.9375 40.1875 C-79.11016007 36.55630852 -78.29520692 33.62472878 -77.5625 29.14453125 C-76.93043988 26.73480205 -76.02865325 25.5190148 -74.4375 23.625 C-71.91080409 20.51578053 -71.72496295 18.28471211 -71.625 14.3125 C-71.37168611 9.45953919 -71.37168611 9.45953919 -69.7109375 7.40625 C-65.33798573 4.61075572 -60.05388718 3.96306566 -55 5 C-54.3915625 5.515625 -53.783125 6.03125 -53.15625 6.5625 C-50.01998199 8.65334534 -47.85962989 7.94276598 -44.1875 7.4375 C-36.53007289 6.66938167 -36.53007289 6.66938167 -33.125 9 C-29.83338916 11.10663094 -28.0930957 11.52881402 -24.24609375 10.81640625 C-19.37817022 9.04702187 -15.24556118 5.90652768 -11 3 C-7.01795839 0.39863651 -4.80160309 -0.33499556 0 0 Z " fill="#77BDFD" transform="translate(789,75)"/>
<path d="M0 0 C7.45457541 1.2292119 13.65859911 4.95380601 19.6875 9.375 C22.89311292 11.57815093 23.7528086 11.99594768 27.8125 12.0625 C30.95369608 11.25712647 30.95369608 11.25712647 32.703125 9.43359375 C36.51106848 7.05686712 40.74023081 7.87916026 45.06835938 8.1171875 C49.73232195 8.27454706 52.17833344 7.60811981 56 5 C59.6875 4.6875 59.6875 4.6875 63 5 C63.99 5.99 63.99 5.99 65 7 C66.65 7.66 68.3 8.32 70 9 C70 12.96 70 16.92 70 21 C70.66 21 71.32 21 72 21 C75.85280594 25.51060207 77.12215738 27.906137 77.50390625 33.8984375 C78.3616507 37.53203209 80.86201586 39.96585452 83.2265625 42.76953125 C85.33362954 45.41960895 86.69351874 48.11755762 88.10546875 51.17578125 C89.06361745 53.24610882 89.06361745 53.24610882 91 55.875 C92.7558874 58.61857407 93.72744758 60.84608771 94.8125 63.875 C98.33420111 72.96590285 104.81300074 78.09893922 113 83 C111 85 111 85 107.3125 85.3125 C98.51447037 85.11221965 89.53278691 83.56571295 82 79 C75.54221944 78.20672177 69.43820599 81.26308123 63.69921875 83.84375 C59.9525464 85.44869213 56.69363646 86.11522927 52.62890625 86.24609375 C51.80712891 86.27896484 50.98535156 86.31183594 50.13867188 86.34570312 C48.42526014 86.40675722 46.71171077 86.46406691 44.99804688 86.51757812 C40.47866416 86.70514843 37.20248013 87.26709083 33 89 C27.68406307 89.453202 24.08845664 88.54896093 19.25 86.375 C18.64148193 86.10719727 18.03296387 85.83939453 17.40600586 85.56347656 C13.62234081 83.86377747 10.10368276 81.8990586 6.5625 79.75 C2.31596654 77.34280807 -1.08645893 76.57455769 -5.9375 76.125 C-18.67674537 74.8484703 -31.21375289 69.28875467 -41.85546875 62.28125 C-44.16371864 60.90218631 -46.39236733 60.10497458 -48.9375 59.25 C-53.47131051 57.6167018 -55.88678032 55.22649765 -59.1875 51.75 C-63.08643918 47.92948776 -65.60959798 46.47351369 -70.93554688 46.28369141 C-73.96396247 46.40648276 -76.98177135 46.72309829 -80 47 C-80 39.41 -80 31.82 -80 24 C-71 25 -71 25 -69 26 C-54.57906508 26.74541612 -41.17695273 26.85931594 -29.6875 17.01953125 C-26.97277009 14.97953799 -24.59632457 13.83695718 -21.4375 12.625 C-15.91487798 10.42826931 -10.66750636 7.8818898 -5.3984375 5.13671875 C-3 4 -3 4 -1 4 C-0.67 2.68 -0.34 1.36 0 0 Z " fill="#77BDFD" transform="translate(80,103)"/>
<path d="M0 0 C0.66 0 1.32 0 2 0 C2.25394531 0.61488281 2.50789062 1.22976562 2.76953125 1.86328125 C3.11371094 2.67152344 3.45789063 3.47976562 3.8125 4.3125 C4.14894531 5.11300781 4.48539062 5.91351563 4.83203125 6.73828125 C6.83407899 10.6151563 8.48503498 11.7922071 12.5625 13.4375 C16.2236066 15.10163936 16.56412513 15.52103948 18 19 C19.61455078 18.7834375 19.61455078 18.7834375 21.26171875 18.5625 C25.10524969 18.06280557 28.95283603 17.62581708 32.80810547 17.22705078 C34.63515238 17.0377933 36.46043035 16.8315556 38.28515625 16.62109375 C52.69426707 15.72882997 68.1515784 22.95095005 80.7734375 29.421875 C92.4871666 35.40185682 105.38947759 38.47279704 118 42 C119.45490845 42.41088867 119.45490845 42.41088867 120.93920898 42.83007812 C126.85885444 44.47912592 132.78770391 45.91582974 138.8125 47.125 C140.10498657 47.38917725 140.10498657 47.38917725 141.42358398 47.65869141 C146.52036736 48.6557541 151.37477698 49.21502616 156.5625 49.375 C163.5577963 49.72804899 168.23830001 52.17648655 174 56 C174.88429687 56.55945313 175.76859375 57.11890625 176.6796875 57.6953125 C180.97665171 60.46625204 180.97665171 60.46625204 183 62 C183 62.33 183 62.66 183 63 C122.61 63 62.22 63 0 63 C0 42.21 0 21.42 0 0 Z " fill="#2657B2" transform="translate(0,175)"/>
<path d="M0 0 C-0.87363234 3.82214149 -2.41598586 5.60436511 -5.5625 7.75 C-9.37184544 9.97327252 -12.61196566 10.54865636 -16.96484375 10.83984375 C-24.26778401 11.4145473 -27.93850041 16.76612245 -32.4375 21.9375 C-40.90731627 31.6566601 -40.90731627 31.6566601 -47 34 C-47.70125 34.845625 -48.4025 35.69125 -49.125 36.5625 C-52.90436543 39.7667446 -55.74241479 39.67630259 -60.57421875 39.859375 C-63.00983212 39.84045769 -63.00983212 39.84045769 -65 41 C-66.56674294 43.95890595 -67.9548973 46.98421644 -69.3671875 50.01953125 C-71.61719166 54.12659626 -73.51900851 56.50633617 -78 58 C-78.66 58.99 -79.32 59.98 -80 61 C-86.47387877 61.76808731 -89.61589326 60.52037748 -95 57 C-99.51831854 54.35422172 -103.8785606 54.31154421 -109 55 C-111.639038 56.7110076 -111.639038 56.7110076 -114 59 C-119.37228416 62.08177541 -124.7340727 64.22261996 -131 63 C-132.59843308 62.37039648 -134.18134819 61.70051437 -135.75 61 C-142.2080139 58.22235961 -148.63254106 57.82092562 -155.4453125 59.66015625 C-162.06059829 62.32240541 -167.49072307 66.91360955 -172.80096436 71.5839386 C-175.49593932 73.31935841 -177.04184242 73.36377299 -180.22753906 73.34057617 C-181.26831604 73.34034958 -182.30909302 73.34012299 -183.38140869 73.33988953 C-184.49820007 73.32440567 -185.61499146 73.30892181 -186.765625 73.29296875 C-187.91415955 73.28872391 -189.06269409 73.28447906 -190.24603271 73.28010559 C-193.9142603 73.26331333 -197.58193847 73.22565898 -201.25 73.1875 C-203.73697123 73.17245392 -206.22395108 73.15876539 -208.7109375 73.14648438 C-214.80747912 73.11340796 -220.90370031 73.06320256 -227 73 C-223.54690628 69.42783409 -221.17370151 67.25013311 -216.1875 66.1875 C-212.52087985 65.34033867 -210.65466874 63.92754721 -207.875 61.359375 C-203.51814362 58.20065412 -198.03625674 56.767616 -193 55 C-190.99899794 54.29450241 -188.99891592 53.58638686 -187 52.875 C-186.154375 52.58367187 -185.30875 52.29234375 -184.4375 51.9921875 C-181.90752043 51.03709904 -181.90752043 51.03709904 -179.41015625 49.4296875 C-177 48 -177 48 -173.4375 47.25 C-166.2678777 45.64914922 -159.0619457 41.28139421 -154 36 C-147.88014968 32.07405828 -143.0298014 31.65838852 -135.84375 31.3359375 C-129.67145986 30.79648938 -123.86743004 29.09388955 -117.90234375 27.48779297 C-115.12320113 26.77517401 -112.31526935 26.23757083 -109.5 25.6875 C-93.08639846 22.24290243 -74.395561 17.97101111 -59.75390625 9.62109375 C-40.13269338 -1.45516598 -21.93161033 -2.41153028 0 0 Z " fill="#2657B2" transform="translate(850,165)"/>
<path d="M0 0 C-0.56922862 3.94946277 -1.76358436 6.54768658 -3.9375 9.875 C-6.43726733 13.88529024 -7.75372948 17.43034142 -9 22 C-9.77237735 23.28264831 -10.56658622 24.55225374 -11.375 25.8125 C-15.48953411 32.79621961 -16.48213346 41.13931684 -18 49 C-22.6796875 50.078125 -22.6796875 50.078125 -25.5625 49.375 C-28.05594237 48.71737257 -28.05594237 48.71737257 -30.0625 50.3125 C-30.701875 50.869375 -31.34125 51.42625 -32 52 C-32.65226563 52.28359375 -33.30453125 52.5671875 -33.9765625 52.859375 C-36.4315196 54.24325043 -37.04109947 55.4548015 -38.3125 57.9375 C-40.8811396 62.22634976 -43.04847428 63.70123916 -48 65 C-49.62593097 64.97033957 -51.25146758 64.90563287 -52.875 64.8125 C-58.09196978 64.61398517 -60.84527718 66.34698828 -64.89453125 69.4921875 C-70.21020583 73.29896002 -75.07323504 73.2786028 -81.38012695 73.22705078 C-82.31719986 73.22734283 -83.25427277 73.22763489 -84.21974182 73.22793579 C-87.30934997 73.22654524 -90.39871535 73.21099685 -93.48828125 73.1953125 C-95.63347746 73.1915814 -97.77867538 73.18873488 -99.9238739 73.18673706 C-105.56438926 73.17910829 -111.20480129 73.15946621 -116.84527588 73.1373291 C-122.60321658 73.11685444 -128.361174 73.10773187 -134.11914062 73.09765625 C-145.41280576 73.07621968 -156.70639428 73.04209277 -168 73 C-164.29589844 68.07421875 -164.29589844 68.07421875 -161.6328125 67.40625 C-156.22617261 67.60836738 -152.8338279 68.42195845 -148 71 C-142.84103924 71.65659501 -140.28719851 70.68431745 -135.89819336 68.07202148 C-132.88946694 66.37281663 -129.69074036 65.12263431 -126.5 63.8125 C-120.009432 61.07958916 -114.04628454 57.84963141 -108.13671875 54.02075195 C-104.18052895 51.50525233 -100.51455388 50.18858924 -96 49 C-94.28881918 48.23863761 -92.59785407 47.42912383 -90.9375 46.5625 C-90.08414063 46.12292969 -89.23078125 45.68335938 -88.3515625 45.23046875 C-87.57554687 44.82441406 -86.79953125 44.41835937 -86 44 C-79.96445072 40.92305331 -73.88641087 38.28195089 -67.50708008 36.00878906 C-59.4960436 33.14030494 -51.9730729 29.65273003 -44.42578125 25.734375 C-41 24 -41 24 -38.16796875 22.953125 C-35.66883445 22.08656538 -35.66883445 22.08656538 -34 19 C-33.57409771 17.40355333 -33.18113957 15.79813329 -32.8125 14.1875 C-31.49596782 9.89309741 -30.23922921 6.88744874 -26.63671875 4.11328125 C-21.38455838 1.89570243 -15.62185871 1.73133419 -9.984375 1.32421875 C-6.45372503 1.03692076 -3.50494166 0 0 0 Z " fill="#77BDFD" transform="translate(665,165)"/>
<path d="M0 0 C0 17.16 0 34.32 0 52 C-35.31 52 -70.62 52 -107 52 C-103.69902913 42.09708738 -103.69902913 42.09708738 -99 39 C-97.80274829 37.96955639 -96.6157595 36.92710752 -95.4375 35.875 C-93.63984975 34.27247576 -92.188848 33.08454242 -89.984375 32.09765625 C-86.7536054 30.31055732 -85.24858164 27.23263052 -83.26953125 24.19140625 C-78.65054593 19.73142214 -72.91419914 18.82654381 -66.65234375 18.8125 C-64.74709302 18.86496391 -62.84210467 18.92779281 -60.9375 19 C-43.20083441 19.58106027 -43.20083441 19.58106027 -27.63671875 12.32421875 C-25.55273445 10.63813122 -23.35178128 9.59649766 -20.9375 8.4375 C-18.00949509 7.03099613 -15.50604584 5.66101185 -12.8125 3.8125 C-8.75645978 1.19860742 -4.82237179 0 0 0 Z " fill="#00002E" transform="translate(909,186)"/>
<path d="M0 0 C0.66 0 1.32 0 2 0 C2.25394531 0.61488281 2.50789062 1.22976562 2.76953125 1.86328125 C3.11371094 2.67152344 3.45789063 3.47976562 3.8125 4.3125 C4.14894531 5.11300781 4.48539062 5.91351563 4.83203125 6.73828125 C6.76110301 10.47384162 8.2301124 11.74830598 12.25 13.0625 C16.87778726 14.86273859 18.80825623 18.63346657 21.32421875 22.72265625 C23.15200055 25.20656484 24.10808035 26.0222311 27 27 C29.07719095 27.29674156 31.1620359 27.54219315 33.25 27.75 C39.5708322 28.65804323 43.58248674 30.37160043 48 35 C49.36363208 36.97946592 50.69418644 38.9819245 52 41 C56.28720477 45.79874625 59.8844187 49.77247039 66 52 C68.3125 54 68.3125 54 70 56 C70 56.66 70 57.32 70 58 C70.88751953 57.85691406 70.88751953 57.85691406 71.79296875 57.7109375 C80.23168 56.52704 80.23168 56.52704 84 59 C84.495 60.98 84.495 60.98 85 63 C56.95 63 28.9 63 0 63 C0 42.21 0 21.42 0 0 Z " fill="#142467" transform="translate(0,175)"/>
<path d="M0 0 C0.72703125 0.13277344 1.4540625 0.26554688 2.203125 0.40234375 C7.61203433 1.35237013 12.82069185 2.06254258 18.3125 2.25 C23.20123531 2.64033096 26.1817497 3.5567497 29.67578125 7.05078125 C31.70360737 10.03569345 32.53340471 13.13175587 33.296875 16.6328125 C34.10498238 19.35344069 35.05991691 20.93299558 37 23 C38.87707435 23.90059039 38.87707435 23.90059039 41 24.375 C44.67150612 25.46350742 47.69824145 26.87473012 51 28.8125 C56.45123622 31.91207138 62.05650812 33.94351751 67.98632812 35.9074707 C73.7358187 37.82240472 78.6312775 39.6312775 83 44 C61.22 44 39.44 44 17 44 C15.35 38.39 13.7 32.78 12 27 C10.68 24.69 9.36 22.38 8 20 C7.71125 19.0925 7.4225 18.185 7.125 17.25 C5.66234047 13.02453915 3.47596217 9.35196328 1.2421875 5.48828125 C0 3 0 3 0 0 Z " fill="#77BDFD" transform="translate(204,194)"/>
<path d="M0 0 C-3.02768644 8.28246916 -8.20611588 14.32473341 -15.9140625 18.59375 C-21.15621666 20.98257974 -26.58057619 22.80253806 -32.046875 24.60546875 C-36.56079758 26.14646577 -40.68088863 27.64083971 -44.05859375 31.12109375 C-46.43692013 33.42285429 -47.82305582 33.58240971 -51.0625 34.0625 C-58.30831174 35.63495729 -64.07505721 39.23208557 -70.32446289 43.06469727 C-71.49029907 43.77710571 -71.49029907 43.77710571 -72.6796875 44.50390625 C-73.71198486 45.15081421 -73.71198486 45.15081421 -74.76513672 45.81079102 C-81.13377452 49.19965214 -86.8134591 49.26833689 -93.8671875 49.1953125 C-94.90191193 49.1924826 -95.93663635 49.18965271 -97.00271606 49.18673706 C-100.29359714 49.17558048 -103.58420178 49.15048397 -106.875 49.125 C-109.11197522 49.11496437 -111.34895473 49.10583953 -113.5859375 49.09765625 C-119.0573853 49.07565595 -124.52867289 49.04222338 -130 49 C-126.29589844 44.07421875 -126.29589844 44.07421875 -123.6328125 43.40625 C-118.22617261 43.60836738 -114.8338279 44.42195845 -110 47 C-104.84103924 47.65659501 -102.28719851 46.68431745 -97.89819336 44.07202148 C-94.88946694 42.37281663 -91.69074036 41.12263431 -88.5 39.8125 C-82.009432 37.07958916 -76.04628454 33.84963141 -70.13671875 30.02075195 C-66.18052895 27.50525233 -62.51455388 26.18858924 -58 25 C-56.28881918 24.23863761 -54.59785407 23.42912383 -52.9375 22.5625 C-51.65746094 21.90314453 -51.65746094 21.90314453 -50.3515625 21.23046875 C-49.18753906 20.62138672 -49.18753906 20.62138672 -48 20 C-41.9641738 16.92291213 -35.88582498 14.28249866 -29.5065918 12.00830078 C-22.09418313 9.35536034 -15.09827951 6.227719 -8.14086914 2.5402832 C-3.29382792 0 -3.29382792 0 0 0 Z " fill="#91C9FC" transform="translate(627,189)"/>
<path d="M0 0 C4.66326849 0.53195804 7.79289133 1.80102198 11.8125 4.1875 C17.72662576 7.49805086 23.65661736 9.84054188 30.0871582 11.95776367 C35.71625195 13.81904458 40.83866088 15.61065275 45 20 C41.00025019 20.11710979 37.00094719 20.18755489 33 20.25 C31.87464844 20.28351563 30.74929688 20.31703125 29.58984375 20.3515625 C21.30224754 20.44849345 16.05939525 19.27670139 9.609375 14.0703125 C0 4.01680672 0 4.01680672 0 0 Z " fill="#91C9FD" transform="translate(242,218)"/>
<path d="M0 0 C1.85431641 0.25136719 1.85431641 0.25136719 3.74609375 0.5078125 C10.55686423 1.26737798 17.36629707 0.98067143 24.20507812 0.78515625 C30.57263392 0.69632541 35.19486886 1.33786303 41 4 C41 4.33 41 4.66 41 5 C27.47 5 13.94 5 0 5 C0 3.35 0 1.7 0 0 Z " fill="#00012F" transform="translate(0,233)"/>
<path d="M0 0 C6.36179303 0.17415536 11.14203717 1.60098675 16.73828125 4.62890625 C16.73828125 4.95890625 16.73828125 5.28890625 16.73828125 5.62890625 C9.14828125 5.62890625 1.55828125 5.62890625 -6.26171875 5.62890625 C-2.26171875 0.62890625 -2.26171875 0.62890625 0 0 Z " fill="#79BCF9" transform="translate(503.26171875,232.37109375)"/>
<path d="M0 0 C0 1.98 0 3.96 0 6 C-5.12583611 6.10251672 -9.94997778 6.03590199 -15 5 C-5.38461538 0 -5.38461538 0 0 0 Z " fill="#91C8F8" transform="translate(909,98)"/>
<path d="M0 0 C0.66 0.33 1.32 0.66 2 1 C-0.05233685 3.2477975 -1.00667261 4.0022242 -4 5 C-4.66 8.3 -5.32 11.6 -6 15 C-6.33 15 -6.66 15 -7 15 C-7 11.37 -7 7.74 -7 4 C-1.7265625 0.77734375 -1.7265625 0.77734375 0 0 Z " fill="#87BBE8" transform="translate(725,80)"/>
<path d="M0 0 C0.66 0.33 1.32 0.66 2 1 C-0.64 3.64 -3.28 6.28 -6 9 C-6.99 8.34 -7.98 7.68 -9 7 C-8.071875 6.401875 -7.14375 5.80375 -6.1875 5.1875 C-3.79745282 3.54727155 -1.91529747 2.1281083 0 0 Z " fill="#7FBBEE" transform="translate(51,119)"/>
<path d="M0 0 C0.66 0 1.32 0 2 0 C0.55746343 3.36591866 -1.33264727 5.51047079 -4 8 C-4.66 7.67 -5.32 7.34 -6 7 C-5.04882866 5.8274869 -4.08882991 4.66212985 -3.125 3.5 C-2.59132813 2.8503125 -2.05765625 2.200625 -1.5078125 1.53125 C-0.76144531 0.77328125 -0.76144531 0.77328125 0 0 Z " fill="#030638" transform="translate(828,208)"/>
</svg>
