<?xml version="1.0" encoding="UTF-8"?>
<svg version="1.1" xmlns="http://www.w3.org/2000/svg" width="913" height="252">
<path d="M0 0 C301.29 0 602.58 0 913 0 C913 83.16 913 166.32 913 252 C611.71 252 310.42 252 0 252 C0 168.84 0 85.68 0 0 Z " fill="#C4C1BC" transform="translate(0,0)"/>
<path d="M0 0 C6.73539975 0.28661276 10.61716276 3.15237481 16 7 C21.15654545 10.58668806 24.77337566 11.70300597 31 11 C31.75023437 10.49597656 32.50046875 9.99195312 33.2734375 9.47265625 C37.79582656 7.03004783 42.39099745 7.94676788 47.40625 8.1875 C51.30187267 7.98425012 52.81146654 7.09501265 56 5 C58.74852193 4.64024582 61.2104588 4.85815892 64 5 C64 5.66 64 6.32 64 7 C66.31 7.66 68.62 8.32 71 9 C71.01417969 9.79664062 71.02835938 10.59328125 71.04296875 11.4140625 C71.36341931 18.53326153 72.18430568 21.59702588 77 27 C77.52734375 29.296875 77.52734375 29.296875 77.875 31.875 C78.67493314 36.97933528 80.66151046 39.30105641 84.1953125 42.9375 C87.31372282 46.50139751 89.04610342 50.72457474 91 55 C92.02592193 57.07390669 93.06863572 59.13860815 94.11328125 61.203125 C94.89168715 62.78051141 95.60746165 64.38848377 96.3125 66 C100.46294875 73.37857556 106.41447437 79.18716966 114 83 C116.37637296 83.5997298 118.5444824 83.79954958 121 84 C123 86 123 86 123 90 C123.825 90.12375 124.65 90.2475 125.5 90.375 C129 91 129 91 132.6875 92 C136.01114919 92.88503302 139.13015031 93.14793529 142.5625 93.3125 C147.01759166 93.69560081 150.14195895 94.42091279 153.63671875 97.2734375 C155.85457033 100.08229251 156.60293122 103.1496803 157.39453125 106.59765625 C158.01444019 109.05729494 158.57937386 110.8941844 160 113 C162.08199859 114.07265447 162.08199859 114.07265447 164.625 114.75 C169.57661231 116.38764261 174.02330417 118.46421203 178.625 120.875 C186.80317072 125.11788498 195.25584603 128.1429992 204 131 C204 131.66 204 132.32 204 133 C205.03060547 133.29003906 205.03060547 133.29003906 206.08203125 133.5859375 C206.98308594 133.84632813 207.88414062 134.10671875 208.8125 134.375 C209.70582031 134.63023437 210.59914063 134.88546875 211.51953125 135.1484375 C214 136 214 136 217 138 C218.28248573 138.4052877 219.57582076 138.77691801 220.875 139.125 C226.37749071 140.8757925 230.88197294 143.92489187 235.7265625 147.0078125 C240.30636922 149.79504571 245.07042865 151.91613575 250 154 C251.66828689 154.72545203 253.33506369 155.45439095 255 156.1875 C255.70125 156.49042969 256.4025 156.79335937 257.125 157.10546875 C259 158 259 158 262 160 C265.47832872 160.37807921 267.34313849 160.42242609 270.3203125 158.5078125 C274.94358829 155.90637743 279.84261704 156.3437355 285 157 C288.67930728 159.09215512 289.6704934 160.01148019 291 164 C161.64 164 32.28 164 -101 164 C-101 118.13 -101 72.26 -101 25 C-93.16754555 20.52431174 -89.52839065 20.0054733 -81.30078125 22.09375 C-79.63691168 22.55854763 -77.9741788 23.02743008 -76.3125 23.5 C-68.36376822 25.59834894 -61.25685106 26.87496473 -53 26 C-51.70449219 25.87753906 -50.40898438 25.75507812 -49.07421875 25.62890625 C-40.17873452 24.52461742 -34.72672083 21.9898139 -27.7265625 16.140625 C-24.49220976 13.60133374 -21.44166887 12.31567988 -17.59375 10.97265625 C-13.38026373 9.3925989 -9.45566397 7.2475364 -5.46875 5.171875 C-3 4 -3 4 -1 4 C-0.67 2.68 -0.34 1.36 0 0 Z " fill="#61A0FE" transform="translate(101,88)"/>
<path d="M0 0 C0 27.72 0 55.44 0 84 C-105.27 84 -210.54 84 -319 84 C-316.00740608 82.00493739 -312.97002068 80.28377446 -309.8125 78.5625 C-308.65621094 77.93085938 -307.49992188 77.29921875 -306.30859375 76.6484375 C-303.59756182 75.29772266 -301.27783499 74.43347994 -298.375 73.6875 C-294.90117115 72.40158951 -294.90117115 72.40158951 -294.0625 69.84765625 C-293.60024363 68.10106259 -293.17228424 66.34506624 -292.77734375 64.58203125 C-291.5648974 60.55475971 -289.07343457 57.7994794 -286 55 C-283.06101658 53.53050829 -280.27248983 53.72414516 -277 53.5625 C-270.86140006 53.22060516 -264.97770119 52.44871346 -259 51 C-258.34 49.02 -257.68 47.04 -257 45 C-249.375 43.875 -249.375 43.875 -246 45 C-240.77789423 45.23736844 -235.97656156 44.65670026 -230.875 43.6875 C-229.84052734 43.51057617 -229.84052734 43.51057617 -228.78515625 43.33007812 C-224.56850897 42.54399187 -221.62430746 41.20691106 -218 39 C-211.20571129 38.43889178 -204.78180299 41.3279054 -198.70239258 44.01586914 C-195.96636062 45.01225046 -193.73451376 45.36092654 -190.83984375 45.5625 C-189.88142578 45.63726562 -188.92300781 45.71203125 -187.93554688 45.7890625 C-185.93296193 45.92996098 -183.93035765 46.07058493 -181.92773438 46.2109375 C-180.97060547 46.28570312 -180.01347656 46.36046875 -179.02734375 46.4375 C-177.72398071 46.52837891 -177.72398071 46.52837891 -176.39428711 46.62109375 C-173.88919501 47.01753537 -172.23349867 47.8391815 -170 49 C-160.63796268 50.3812842 -152.04569354 45.75966048 -144.22314453 40.89501953 C-140.03421162 38.29165544 -137.01399204 37.57826225 -132.125 37.375 C-124.29099726 36.73191732 -117.43918624 34.18395389 -110.1875 31.25 C-109.15061035 30.83153809 -108.1137207 30.41307617 -107.04541016 29.98193359 C-100.94926439 27.43839277 -95.14508633 24.56968126 -89.39282227 21.32324219 C-87.21190517 20.11718457 -85.01527033 19.03638696 -82.75 18 C-78.23351108 15.78366111 -73.29738138 12.59476275 -71 8 C-70.06542969 8.02094727 -69.13085938 8.04189453 -68.16796875 8.06347656 C-45.22219877 8.60095015 -45.22219877 8.60095015 -22.4375 6.25 C-21.51388672 6.09305664 -20.59027344 5.93611328 -19.63867188 5.77441406 C-14.13397719 4.71456708 -9.15884174 3.0221519 -4.01586914 0.79589844 C-2 0 -2 0 0 0 Z " fill="#61A0FE" transform="translate(913,168)"/>
<path d="M0 0 C6.35699104 2.1740359 12.49117507 7.67177238 16.875 12.6875 C17.43294847 13.96357353 17.95238221 15.25699976 18.4375 16.5625 C20.65195331 21.29535118 23.9423939 22.65436663 28.6328125 24.58203125 C30.875 25.6875 30.875 25.6875 32.875 28.6875 C33.61621094 28.6153125 34.35742188 28.543125 35.12109375 28.46875 C49.52614134 27.19927212 62.1706536 26.4552259 75.875 31.6875 C77.16308611 32.14209901 78.45219996 32.59379369 79.7421875 33.04296875 C86.16263538 35.31978941 92.19913661 37.78458039 98.1875 41.0625 C114.96553755 49.68031019 134.35987878 53.30746352 152.76953125 56.6796875 C155.71422644 57.22344924 158.31509004 57.83768531 161.16015625 58.80859375 C164.37673717 59.8499329 167.1259828 59.8556091 170.5 59.875 C178.41358772 60.34197673 183.46342215 63.24383218 189.875 67.6875 C191.54153724 68.79186201 193.20819251 69.89604593 194.875 71 C195.555625 71.47050781 196.23625 71.94101563 196.9375 72.42578125 C200.21027048 74.55704106 202.84289807 75.68013234 206.6875 76.5625 C210.11139766 77.36849051 212.6354187 78.6948049 215.63671875 80.55078125 C218.72339812 82.11836187 221.96253524 83.13375302 225.25 84.1875 C239.7431497 88.86654453 239.7431497 88.86654453 244.875 93.25 C248.14651444 95.90810549 250.70722532 96.79394328 254.7265625 97.81640625 C256.875 98.6875 256.875 98.6875 260.875 102.6875 C172.435 102.6875 83.995 102.6875 -7.125 102.6875 C-7.125 69.6875 -7.125 36.6875 -7.125 2.6875 C-3.125 -0.3125 -3.125 -0.3125 0 0 Z " fill="#142467" transform="translate(7.125,149.3125)"/>
<path d="M0 0 C0.33 0 0.66 0 1 0 C1 55.44 1 110.88 1 168 C-7.11111257 171.37963024 -13.58522964 173.97545183 -22 175.3125 C-23.00603271 175.47709717 -24.01206543 175.64169434 -25.04858398 175.8112793 C-39.57641701 177.94658346 -55.47988874 178.59212436 -70 176 C-70.24621094 176.5878125 -70.49242187 177.175625 -70.74609375 177.78125 C-74.14405579 183.79384326 -81.09913244 187.33426277 -87.3125 189.84765625 C-90.11824781 191.05070219 -92.81319938 192.42055474 -95.52319336 193.82397461 C-107.52793405 200.01102222 -118.80254897 204.97883304 -132.34057617 206.17993164 C-138.9270021 206.87062159 -143.4732491 209.58027063 -149 213 C-155.50617354 216.49355204 -161.47971602 219.41470689 -169 218 C-169.59917236 217.67322266 -170.19834473 217.34644531 -170.81567383 217.00976562 C-173.29806242 215.86221234 -175.19921397 215.64637173 -177.921875 215.47265625 C-179.33726562 215.36727539 -179.33726562 215.36727539 -180.78125 215.25976562 C-182.74460401 215.12930592 -184.70814688 215.00165511 -186.671875 214.87695312 C-193.68686558 214.34796946 -199.04066292 212.82738634 -205.4375 209.875 C-209.18315999 208.59599415 -213.0326419 207.74864341 -217 208 C-218.13308594 208.68449219 -218.13308594 208.68449219 -219.2890625 209.3828125 C-222.68323169 211.40757626 -226.03691837 212.03108043 -229.875 212.6875 C-230.55691406 212.81705078 -231.23882813 212.94660156 -231.94140625 213.08007812 C-243.31028543 215.12647638 -243.31028543 215.12647638 -248 212 C-246.91332031 211.14728516 -246.91332031 211.14728516 -245.8046875 210.27734375 C-237.84806205 203.92265223 -231.87467147 198.74089832 -227.99609375 189.26171875 C-226.68008423 186.27360302 -224.98875657 183.62819021 -223.21484375 180.89453125 C-221.74345987 178.59992938 -220.43116861 176.22459873 -219.10546875 173.84375 C-217.80117145 171.6683849 -216.3393688 169.63318131 -214.875 167.5625 C-212.87531113 164.62795659 -211.60806985 162.22553652 -210.875 158.75 C-210 155 -210 155 -207.99609375 152.6796875 C-205.57297001 149.42672686 -205.4590945 147.37986811 -205.1875 143.375 C-204.7421875 139.91796875 -204.7421875 139.91796875 -204 137 C-199.58412313 133.79632463 -195.37277096 133.39176178 -190 134 C-189.43410156 134.50402344 -188.86820313 135.00804687 -188.28515625 135.52734375 C-184.52825364 137.94845876 -180.3204083 137.08616865 -176.01953125 136.79492188 C-170.72600641 136.59055792 -168.15375168 137.82682607 -164 141 C-159.50439421 142.02172859 -156.92994406 140.56404947 -153.125 138.3125 C-150.64794442 136.74667357 -148.20803764 135.14224482 -145.7890625 133.48828125 C-142.71082523 131.43022607 -140.48401448 130.0949048 -136.8125 129.375 C-134 130 -134 130 -131.84375 132.28515625 C-128.40474776 135.56826966 -124.99769091 137.17086828 -120.6875 139.0625 C-119.23263195 139.71907584 -117.77820289 140.37662531 -116.32421875 141.03515625 C-115.61031982 141.35766357 -114.8964209 141.6801709 -114.16088867 142.01245117 C-111.98292188 143.00780488 -109.81363958 144.01543152 -107.65625 145.0546875 C-107.02912109 145.35487793 -106.40199219 145.65506836 -105.75585938 145.96435547 C-103.80611792 147.11435592 -102.39169604 148.44850723 -100.8125 150.0625 C-93.33136049 156.71801826 -81.60398783 156.67050348 -72.046875 156.37109375 C-66.7185809 156.02243021 -61.77582498 154.41270345 -56.67578125 152.91015625 C-50.31162108 151.33433338 -42.73977359 150.13636701 -36.6640625 153.1640625 C-35.38311506 154.07034547 -34.1150398 154.99521616 -32.86328125 155.94140625 C-29.87396739 157.63973761 -27.3777326 157.18138166 -24.0859375 156.5859375 C-21.16336056 155.76498892 -18.66518445 154.44364158 -16 153 C-11.73470017 151.41360778 -7.42526475 150.06126259 -3 149 C-2.01 151.475 -2.01 151.475 -1 154 C-0.67 103.18 -0.34 52.36 0 0 Z " fill="#77BCFB" transform="translate(912,0)"/>
<path d="M0 0 C6.73539975 0.28661276 10.61716276 3.15237481 16 7 C21.15654545 10.58668806 24.77337566 11.70300597 31 11 C31.75023437 10.49597656 32.50046875 9.99195312 33.2734375 9.47265625 C37.79582656 7.03004783 42.39099745 7.94676788 47.40625 8.1875 C51.30187267 7.98425012 52.81146654 7.09501265 56 5 C58.74852193 4.64024582 61.2104588 4.85815892 64 5 C64 5.66 64 6.32 64 7 C66.31 7.66 68.62 8.32 71 9 C71.01417969 9.79664062 71.02835938 10.59328125 71.04296875 11.4140625 C71.36341931 18.53326153 72.18430568 21.59702588 77 27 C77.52734375 29.296875 77.52734375 29.296875 77.875 31.875 C78.67493314 36.97933528 80.66151046 39.30105641 84.1953125 42.9375 C87.31372282 46.50139751 89.04610342 50.72457474 91 55 C92.02592193 57.07390669 93.06863572 59.13860815 94.11328125 61.203125 C94.89168715 62.78051141 95.60746165 64.38848377 96.3125 66 C100.61705132 73.65253568 106.54512971 78.53722051 114 83 C107.92459615 87.05026923 100.45594083 85.0408668 93.625 83.6875 C89.18179217 82.75649526 86.57553692 81.69680327 83 79 C77.13230583 78.37213389 71.73456901 80.7834617 66.4453125 83.015625 C59.4347263 85.83777791 52.36484099 86.24739121 44.88452148 86.59960938 C41.09762316 86.79630814 37.59794491 87.20175411 33.9375 88.1875 C24.92085692 90.42471219 13.87811755 83.62972197 6.125 79.3125 C2.23105284 77.30391333 -1.02393456 76.62463975 -5.375 76.1875 C-17.84938677 74.75444682 -30.33543257 69.2056391 -40.78515625 62.35546875 C-43.27476715 60.83184444 -45.80771031 59.7489656 -48.5 58.625 C-54.37673338 56.05130935 -59.41984714 52.50067082 -64 48 C-64 47.34 -64 46.68 -64 46 C-76.21 46 -88.42 46 -101 46 C-101 39.07 -101 32.14 -101 25 C-93.16754555 20.52431174 -89.52839065 20.0054733 -81.30078125 22.09375 C-79.63691168 22.55854763 -77.9741788 23.02743008 -76.3125 23.5 C-68.36376822 25.59834894 -61.25685106 26.87496473 -53 26 C-51.70449219 25.87753906 -50.40898438 25.75507812 -49.07421875 25.62890625 C-40.17873452 24.52461742 -34.72672083 21.9898139 -27.7265625 16.140625 C-24.49220976 13.60133374 -21.44166887 12.31567988 -17.59375 10.97265625 C-13.38026373 9.3925989 -9.45566397 7.2475364 -5.46875 5.171875 C-3 4 -3 4 -1 4 C-0.67 2.68 -0.34 1.36 0 0 Z " fill="#77BDFD" transform="translate(101,88)"/>
<path d="M0 0 C0 20.13 0 40.26 0 61 C-72.6 61 -145.2 61 -220 61 C-220 60.67 -220 60.34 -220 60 C-219.19820312 59.97421875 -218.39640625 59.9484375 -217.5703125 59.921875 C-208.13914435 59.45138589 -199.39276452 57.70717245 -190.23754883 55.51123047 C-187.91491909 54.98056089 -185.58593406 54.52256857 -183.24609375 54.07421875 C-167.14204131 50.89835701 -148.68800569 47.17134734 -134.5234375 38.48046875 C-130.47785235 36.10697529 -126.10273801 34.79070015 -121.6796875 33.2734375 C-119.41858845 32.49093401 -117.16958859 31.67080878 -114.9453125 30.7890625 C-102.74258587 26.126232 -86.59199583 26.42375298 -74 30 C-73.63648438 29.05833984 -73.63648438 29.05833984 -73.265625 28.09765625 C-71.67509896 25.4615066 -70.64812699 25.30003779 -67.75 24.4375 C-62.30464717 22.27332131 -60.76894545 18.75528642 -58.484375 13.55859375 C-56.70585653 10.49298954 -55.09419542 9.64900235 -52 8 C-49.72489159 6.18069242 -47.50037148 4.31281589 -45.28125 2.42578125 C-42.55874825 0.72421766 -41.1574248 0.63238914 -38 1 C-31.53021807 3.19314642 -31.53021807 3.19314642 -29.5625 6.1875 C-29.376875 6.785625 -29.19125 7.38375 -29 8 C-25.34683329 6.75023244 -24.21934164 6.32901247 -22 3 C-19.31563942 2.66666731 -16.81552189 2.48750085 -14.125 2.4375 C-9.1513368 2.3173847 -4.51607285 0 0 0 Z " fill="#152467" transform="translate(913,191)"/>
<path d="M0 0 C1.28808611 0.45459901 2.57719996 0.90629369 3.8671875 1.35546875 C10.28763538 3.63228941 16.32413661 6.09708039 22.3125 9.375 C39.09053755 17.99281019 58.48487878 21.61996352 76.89453125 24.9921875 C79.83922644 25.53594924 82.44009004 26.15018531 85.28515625 27.12109375 C88.50173717 28.1624329 91.2509828 28.1681091 94.625 28.1875 C102.53858772 28.65447673 107.58842215 31.55633218 114 36 C115.66653724 37.10436201 117.33319251 38.20854593 119 39.3125 C119.680625 39.78300781 120.36125 40.25351563 121.0625 40.73828125 C124.33527048 42.86954106 126.96789807 43.99263234 130.8125 44.875 C134.23639766 45.68099051 136.7604187 47.0073049 139.76171875 48.86328125 C142.84839812 50.43086187 146.08753524 51.44625302 149.375 52.5 C163.8681497 57.17904453 163.8681497 57.17904453 169 61.5625 C172.27151444 64.22060549 174.83222532 65.10644328 178.8515625 66.12890625 C181.55608529 67.22546731 182.99743706 68.9117477 185 71 C177.95705257 71.20434487 170.91488034 71.34356022 163.86962891 71.43945312 C161.47773678 71.47946319 159.08603754 71.53389095 156.69482422 71.60351562 C132.67069664 72.28505116 132.67069664 72.28505116 124.19042969 65.12304688 C123.46758789 64.42244141 122.74474609 63.72183594 122 63 C115.5620735 57.70765176 109.99278247 55.41020641 101.56640625 55.62890625 C98.77790912 56.0321136 96.6316088 56.85591193 94.0625 58 C88.64986338 60.36696805 83.84754836 61.0073149 78 60 C73.75334014 58.27500018 70.1533809 55.86503567 66.5 53.125 C62.56049871 51.35222442 59.12008687 51.97169213 55 53 C51.02830454 54.5831715 47.55187901 56.63208066 44 59 C41 59.375 41 59.375 38 59 C36.4375 57.125 36.4375 57.125 35 55 C33.824375 54.67128906 33.824375 54.67128906 32.625 54.3359375 C29.37952689 52.68422351 28.78201366 50.87246536 27.42700195 47.59155273 C25.99260824 44.12121923 24.51790338 40.82213481 22 38 C18.24087671 36.6689982 15.11914209 36.44828805 11.1484375 36.30859375 C8 36 8 36 6.1640625 34.66015625 C5.04833514 33.15001572 4.01864434 31.57725575 3 30 C2.21625 29.690625 1.4325 29.38125 0.625 29.0625 C-3.48029578 27.40083266 -6.00026243 24.17871953 -9 21 C-9.7425 20.29875 -10.485 19.5975 -11.25 18.875 C-13 17 -13 17 -14.4375 14.4375 C-16.33426719 11.47854319 -17.8673837 10.57284351 -21 9 C-24.17343867 8.32583474 -24.17343867 8.32583474 -27.5 8 C-33.56452697 7.31986613 -37.22917998 6.01012002 -41.3125 1.375 C-43 -1 -43 -1 -43 -2 C-27.94849989 -4.93177046 -14.45920019 -5.52047478 0 0 Z " fill="#2657B2" transform="translate(83,181)"/>
<path d="M0 0 C0.81082031 0.20496094 1.62164062 0.40992188 2.45703125 0.62109375 C7.96574694 1.96139827 13.20170926 3.11461253 18.875 3.375 C23.21842666 3.72323392 26.23041528 4.49311342 29.63671875 7.2734375 C31.85457033 10.08229251 32.60293122 13.1496803 33.39453125 16.59765625 C34.01444019 19.05729494 34.57937386 20.8941844 36 23 C38.08199859 24.07265447 38.08199859 24.07265447 40.625 24.75 C45.57661231 26.38764261 50.02330417 28.46421203 54.625 30.875 C62.80317072 35.11788498 71.25584603 38.1429992 80 41 C80 41.66 80 42.32 80 43 C81.03060547 43.29003906 81.03060547 43.29003906 82.08203125 43.5859375 C82.98308594 43.84632813 83.88414062 44.10671875 84.8125 44.375 C85.70582031 44.63023437 86.59914063 44.88546875 87.51953125 45.1484375 C90 46 90 46 93 48 C94.28248573 48.4052877 95.57582076 48.77691801 96.875 49.125 C102.37749071 50.8757925 106.88197294 53.92489187 111.7265625 57.0078125 C116.30636922 59.79504571 121.07042865 61.91613575 126 64 C127.66828689 64.72545203 129.33506369 65.45439095 131 66.1875 C131.70125 66.49042969 132.4025 66.79335937 133.125 67.10546875 C135 68 135 68 138 70 C141.47832872 70.37807921 143.34313849 70.42242609 146.3203125 68.5078125 C150.94358829 65.90637743 155.84261704 66.3437355 161 67 C164.67930728 69.09215512 165.6704934 70.01148019 167 74 C154.91673299 74.11611336 142.83359984 74.20482685 130.74988747 74.25906086 C125.13823288 74.28509733 119.52696146 74.32038687 113.91552734 74.37719727 C108.49494055 74.43172888 103.07472112 74.46146525 97.65388107 74.47438622 C95.59110104 74.48358816 93.52833995 74.5015573 91.46571732 74.52865028 C69.27929492 74.8083478 69.27929492 74.8083478 60.5 66.6875 C57.07887168 64.37823838 54.45721101 64.83160899 50.42578125 64.95703125 C47.01113295 65.01751616 44.99583518 64.70217908 42 63 C40.37491082 60.77619375 38.9479483 58.47702563 37.515625 56.125 C35.48212614 53.27390881 33.22217081 52.24492963 30 51 C29.34 50.34 28.68 49.68 28 49 C25.77871445 48.97691403 25.77871445 48.97691403 23.375 49.375 C22.55773437 49.48585937 21.74046875 49.59671875 20.8984375 49.7109375 C20.27195313 49.80632812 19.64546875 49.90171875 19 50 C18.72027344 49.01257813 18.44054687 48.02515625 18.15234375 47.0078125 C16.99199562 42.95220697 15.79420102 38.90948818 14.5625 34.875 C14.35818359 34.18535156 14.15386719 33.49570313 13.94335938 32.78515625 C12.72322317 28.80926071 11.21155482 25.50733905 9 22 C8.7525 20.989375 8.505 19.97875 8.25 18.9375 C7.01376009 14.025073 4.10992911 9.931886 1.4609375 5.671875 C0 3 0 3 0 0 Z " fill="#77BDFD" transform="translate(225,178)"/>
<path d="M0 0 C9.6362636 3.85450544 9.6362636 3.85450544 12.81542969 6.52490234 C21.13953208 12.14562504 35.58802571 10.34746045 45.24609375 10.390625 C53.07291336 10.55126668 60.22986256 11.19268172 65.98046875 17 C66.37878906 17.66 66.77710937 18.32 67.1875 19 C69.65651107 22.69665825 72.15193934 24.6911636 76 27 C77 28 78 29 79 30 C79.804375 30.391875 80.60875 30.78375 81.4375 31.1875 C84.63887734 33.45188885 85.53491062 35.69938583 87.0078125 39.2578125 C87.94382071 41.35231509 87.94382071 41.35231509 91 42 C91 42.66 91 43.32 91 44 C60.97 44 30.94 44 0 44 C0 29.48 0 14.96 0 0 Z " fill="#00002E" transform="translate(0,208)"/>
<path d="M0 0 C1.83304688 0.08314453 1.83304688 0.08314453 3.703125 0.16796875 C13.13039771 0.72810939 13.13039771 0.72810939 17 3 C13.13297466 8.61342388 9.64839696 10.5946478 3 12 C1.43990424 12.1696315 -0.1229095 12.3161321 -1.6875 12.4375 C-6.04768236 12.83318845 -8.65437108 14.05266024 -12 17 C-12.69339729 18.39214218 -12.69339729 18.39214218 -13.40080261 19.81240845 C-16.27987898 25.55111186 -20.06610836 30.26550721 -26 33 C-33.68153337 34.78316994 -41.78189958 34.16415129 -49.60546875 33.9765625 C-51.89900109 33.95788721 -54.19257361 33.94366396 -56.48616028 33.9336853 C-62.49264687 33.89569213 -68.49667513 33.79762928 -74.50219727 33.68664551 C-80.64240266 33.58393588 -86.78300939 33.53858883 -92.92382812 33.48828125 C-104.95029275 33.38136769 -116.97494114 33.21092986 -129 33 C-129 32.67 -129 32.34 -129 32 C-128.19820312 31.97421875 -127.39640625 31.9484375 -126.5703125 31.921875 C-117.13914435 31.45138589 -108.39276452 29.70717245 -99.23754883 27.51123047 C-96.91491909 26.98056089 -94.58593406 26.52256857 -92.24609375 26.07421875 C-76.14204131 22.89835701 -57.68800569 19.17134734 -43.5234375 10.48046875 C-39.47785235 8.10697529 -35.10273801 6.79070015 -30.6796875 5.2734375 C-28.41858845 4.49093401 -26.16958859 3.67080878 -23.9453125 2.7890625 C-15.85835387 -0.30107616 -8.58862416 -0.45437742 0 0 Z " fill="#2657B3" transform="translate(822,219)"/>
<path d="M0 0 C5.57334669 1.1986346 9.78730991 2.77735109 14.75 5.6875 C23.68657289 10.73875865 33.26241781 13.8577886 43 17 C43 17.66 43 18.32 43 19 C43.68707031 19.19335938 44.37414062 19.38671875 45.08203125 19.5859375 C45.98308594 19.84632813 46.88414062 20.10671875 47.8125 20.375 C49.15248047 20.75785156 49.15248047 20.75785156 50.51953125 21.1484375 C53 22 53 22 56 24 C57.28248573 24.4052877 58.57582076 24.77691801 59.875 25.125 C65.37749071 26.8757925 69.88197294 29.92489187 74.7265625 33.0078125 C79.30525575 35.79436806 84.06847795 37.92278313 89 40 C90.66893375 40.70297513 92.33575872 41.4109868 94 42.125 C94.70125 42.41632813 95.4025 42.70765625 96.125 43.0078125 C98.15177971 44.08031676 99.46936923 45.30673972 101 47 C85.11829924 50.55917588 75.00197628 46.24826547 61.7109375 37.9453125 C55.01994541 33.77857066 49.94802233 31.89048001 42 32 C41.95617187 31.3915625 41.91234375 30.783125 41.8671875 30.15625 C41.16330986 27.73397533 41.16330986 27.73397533 38.4453125 26.65625 C37.34960938 26.2746875 36.25390625 25.893125 35.125 25.5 C33.94679688 25.07460937 32.76859375 24.64921875 31.5546875 24.2109375 C29.37826581 23.46951912 27.19693465 22.74209651 25.0078125 22.0390625 C13.30479246 18.16015784 6.56589859 11.34084301 0 1 C0 0.67 0 0.34 0 0 Z " fill="#90C9FD" transform="translate(262,202)"/>
<path d="M0 0 C-4.56184638 9.28597187 -4.56184638 9.28597187 -6.6875 12.75 C-8.11935838 15.02259472 -8.11935838 15.02259472 -8.9375 17.875 C-9.81027206 20.44197666 -10.69799705 22.32792309 -12.0625 24.625 C-14.18481822 27.96672866 -14.18481822 27.96672866 -15 32 C-29.85 32 -44.7 32 -60 32 C-57.00740608 30.00493739 -53.97002068 28.28377446 -50.8125 26.5625 C-49.07806641 25.61503906 -49.07806641 25.61503906 -47.30859375 24.6484375 C-44.59756182 23.29772266 -42.27783499 22.43347994 -39.375 21.6875 C-35.90117115 20.40158951 -35.90117115 20.40158951 -35.0625 17.84765625 C-34.60024363 16.10106259 -34.17228424 14.34506624 -33.77734375 12.58203125 C-32.5648974 8.55475971 -30.07343457 5.7994794 -27 3 C-24.03133451 1.51566725 -21.17815045 1.72338904 -17.875 1.5625 C-13.54944711 1.32857492 -9.38158787 1.03011847 -5.1875 -0.125 C-2 -1 -2 -1 0 0 Z " fill="#77BDFC" transform="translate(654,220)"/>
<path d="M0 0 C0.33 0 0.66 0 1 0 C1 8.25 1 16.5 1 25 C-11.21 25 -23.42 25 -36 25 C-30.67704183 19.67704183 -26.42664553 17.36250409 -19.3125 15.4375 C-11.56256421 13.0205377 -6.43361841 7.81184991 -1 2 C-0.67 1.34 -0.34 0.68 0 0 Z " fill="#00002F" transform="translate(912,227)"/>
<path d="M0 0 C0.50367757 1.45706726 1.00282556 2.91570096 1.5 4.375 C1.7784375 5.18710938 2.056875 5.99921875 2.34375 6.8359375 C3 9 3 9 3 11 C-0.33331439 11.02937438 -3.66659483 11.04692334 -7 11.0625 C-7.93457031 11.07087891 -8.86914062 11.07925781 -9.83203125 11.08789062 C-15.32274401 11.10708892 -20.56866481 10.8134193 -26 10 C-19.446521 6.6864432 -12.85562747 3.82567428 -5.84765625 1.61328125 C-0.98726115 0 -0.98726115 0 0 0 Z " fill="#92C9FA" transform="translate(909,149)"/>
<path d="M0 0 C-2 3 -4 6 -6 9 C-8.7885289 9.22107787 -11.34653181 9.28107535 -14.125 9.1875 C-14.87910156 9.17396484 -15.63320313 9.16042969 -16.41015625 9.14648438 C-18.27374127 9.11109985 -20.13695978 9.05729167 -22 9 C-18.93074828 6.95383219 -15.80297505 5.19934739 -12.5625 3.4375 C-10.86287109 2.50744141 -10.86287109 2.50744141 -9.12890625 1.55859375 C-2.99437148 -1.49718574 -2.99437148 -1.49718574 0 0 Z " fill="#93C8F9" transform="translate(616,243)"/>
</svg>
